<svg width="544" height="292" viewBox="0 0 544 292" fill="none" xmlns="http://www.w3.org/2000/svg">
<g clip-path="url(#clip0_7_220)">
<path d="M50.3005 288.752C40.8337 288.875 31.3582 288.097 20.5924 280.815C18.3839 279.324 16.0878 277.241 16.1677 274.574C16.2275 272.565 17.7159 270.811 19.5121 269.903C20.1834 269.572 20.891 269.321 21.6207 269.155C21.6243 269.155 21.6284 269.155 21.6284 269.151C22.7549 268.91 23.9012 268.772 25.0528 268.74L25.3811 268.728C30.8627 268.527 36.344 269.136 41.6478 270.535C42.128 270.661 42.6365 270.62 43.0905 270.419C43.5444 270.219 43.917 269.87 44.1476 269.431C44.3782 268.992 44.4532 268.487 44.3603 268C44.2675 267.513 44.0122 267.071 43.6362 266.747C42.9513 266.162 42.2086 265.647 41.4195 265.212C40.262 264.588 39.0486 264.074 37.7951 263.676C36.1231 263.129 34.3945 262.718 32.6905 262.273C26.3572 260.632 20.1656 258.486 14.1751 255.856C9.89877 253.977 5.59136 251.749 2.66556 248.107C1.32184 246.431 0.277173 244.336 0.541079 242.204C0.981226 238.701 4.74576 236.542 8.25415 236.102C14.4034 235.334 20.4043 238.078 25.8783 240.977C30.4195 243.388 35.4921 246.042 40.4488 244.676C41.3071 244.483 42.0902 244.044 42.7011 243.412C43.8216 242.116 43.5454 240.045 42.5454 238.653C41.5455 237.261 39.9927 236.394 38.4965 235.562C29.8031 230.735 21.1221 225.597 14.1847 218.479C7.24739 211.361 2.14369 201.956 2.1373 192.015C2.1373 189.107 2.58932 186.132 3.96957 183.572C5.34982 181.011 7.76607 178.905 10.6307 178.381C14.5313 177.661 18.3721 179.905 21.3243 182.548C31.466 191.618 35.5109 205.447 41.5012 217.659C43.1778 221.078 45.1178 224.513 48.2107 226.773C48.4998 226.993 48.8327 227.148 49.1869 227.229C51.2749 227.677 52.1871 225.114 52.283 223.158C52.6551 215.424 50.7507 207.334 53.5674 200.121C54.6436 197.373 56.5758 194.742 59.3884 193.851C62.8251 192.763 66.6896 194.674 68.7538 197.629C70.8181 200.585 71.3742 204.338 71.3564 207.944C71.3244 214.626 69.5163 221.204 66.8599 227.334C65.4596 230.569 63.7793 233.925 64.1793 237.424C64.3378 238.606 64.7959 239.727 65.51 240.683C66.2242 241.638 67.1707 242.395 68.2598 242.882C68.7649 243.097 69.3081 243.208 69.8571 243.21C70.4061 243.211 70.9498 243.102 71.4559 242.89C72.548 242.422 73.3804 241.521 74.1808 240.642C74.5164 240.275 74.8524 239.903 75.1926 239.535C76.5288 238.071 77.8651 236.606 79.2014 235.14C82.5979 231.413 86.8428 227.354 91.8488 227.994C94.4056 228.322 96.5215 229.911 97.9697 232.049C99.2746 233.993 100.01 236.263 100.094 238.603C100.246 243.478 96.1178 258.517 93.7934 262.804C91.0799 267.809 82.6911 288.33 50.3005 288.752Z" fill="#0EA5E9"/>
<path d="M493.702 288.752C503.169 288.875 512.644 288.097 523.41 280.815C525.618 279.324 527.915 277.241 527.835 274.574C527.775 272.565 526.286 270.811 524.49 269.903C523.819 269.572 523.111 269.321 522.382 269.155C522.378 269.155 522.374 269.155 522.374 269.151C521.247 268.91 520.101 268.772 518.949 268.74L518.621 268.728C513.139 268.527 507.658 269.136 502.354 270.535C501.874 270.661 501.366 270.619 500.912 270.419C500.458 270.218 500.086 269.87 499.855 269.431C499.625 268.992 499.55 268.487 499.643 268C499.735 267.513 499.991 267.071 500.366 266.747C501.051 266.162 501.794 265.647 502.583 265.212C503.74 264.588 504.954 264.074 506.207 263.676C507.88 263.129 509.608 262.718 511.312 262.273C517.645 260.632 523.837 258.488 529.827 255.859C534.104 253.979 538.411 251.751 541.337 248.109C542.681 246.433 543.725 244.338 543.461 242.206C543.021 238.704 539.256 236.544 535.748 236.104C529.599 235.337 523.598 238.08 518.124 240.979C513.583 243.39 508.51 246.045 503.553 244.678C502.695 244.486 501.912 244.046 501.301 243.414C500.181 242.118 500.457 240.047 501.457 238.655C502.458 237.263 504.01 236.396 505.506 235.564C514.199 230.738 522.881 225.599 529.818 218.481C536.754 211.363 541.855 201.958 541.864 192.017C541.864 189.11 541.412 186.135 540.031 183.574C538.651 181.013 536.235 178.907 533.37 178.383C529.47 177.663 525.629 179.907 522.677 182.55C512.535 191.619 508.49 205.448 502.501 217.66C500.825 221.079 498.885 224.514 495.792 226.773C495.503 226.994 495.17 227.149 494.816 227.23C492.728 227.678 491.816 225.115 491.72 223.159C491.348 215.425 493.252 207.335 490.435 200.122C489.359 197.374 487.427 194.743 484.614 193.852C481.178 192.764 477.313 194.675 475.249 197.63C473.185 200.585 472.629 204.339 472.646 207.945C472.678 214.627 474.486 221.205 477.143 227.335C478.543 230.57 480.223 233.925 479.823 237.425C479.665 238.606 479.207 239.728 478.493 240.684C477.779 241.639 476.832 242.396 475.743 242.883C475.238 243.098 474.695 243.209 474.146 243.211C473.597 243.212 473.053 243.103 472.547 242.891C471.455 242.423 470.622 241.521 469.822 240.643C469.486 240.276 469.15 239.904 468.81 239.536C467.474 238.072 466.138 236.607 464.801 235.141C461.405 231.414 457.16 227.355 452.154 227.995C449.597 228.323 447.481 229.912 446.033 232.05C444.728 233.994 443.992 236.264 443.908 238.604C443.757 243.478 447.885 258.518 450.209 262.805C452.92 267.809 461.309 288.33 493.702 288.752Z" fill="#0EA5E9"/>
<path d="M484.967 272.713H59.0332C53.7049 272.713 49.3856 277.03 49.3856 282.356V282.357C49.3856 287.683 53.7049 292 59.0332 292H484.967C490.295 292 494.614 287.683 494.614 282.357V282.356C494.614 277.03 490.295 272.713 484.967 272.713Z" fill="#D1D5DB"/>
<path d="M450.476 0H92.0949C84.247 0 77.8851 6.35912 77.8851 14.2035V261.643C77.8851 269.488 84.247 275.847 92.0949 275.847H450.476C458.323 275.847 464.685 269.488 464.685 261.643V14.2035C464.685 6.35912 458.323 0 450.476 0Z" fill="#D1D5DB"/>
<path d="M449.592 9.68671H92.9775C89.5077 9.68671 86.6949 12.4983 86.6949 15.9665V259.574C86.6949 263.042 89.5077 265.854 92.9775 265.854H449.592C453.062 265.854 455.875 263.042 455.875 259.574V15.9665C455.875 12.4983 453.062 9.68671 449.592 9.68671Z" fill="#6B7280"/>
<path d="M443.105 23.2777H98.1588V253.921H443.105V23.2777Z" fill="white"/>
<path d="M443.105 23.2777H98.1588V42.2769H443.105V23.2777Z" fill="#D1D5DB"/>
<path d="M432.433 37.5447C435.067 37.5447 437.202 35.4105 437.202 32.7778C437.202 30.1451 435.067 28.0109 432.433 28.0109C429.799 28.0109 427.664 30.1451 427.664 32.7778C427.664 35.4105 429.799 37.5447 432.433 37.5447Z" fill="white"/>
<path d="M193.873 59.1005H121.015V63.8815H193.873V59.1005Z" fill="#6B7280"/>
<path d="M268.491 70.4009H121.015V75.1819H268.491V70.4009Z" fill="#D1D5DB"/>
<path d="M367.043 70.4009H283.329V75.1819H367.043V70.4009Z" fill="#D1D5DB"/>
<path d="M238.166 93.0018H121.015V97.7829H238.166V93.0018Z" fill="#D1D5DB"/>
<path d="M367.043 93.0018H253.004V97.7829H367.043V93.0018Z" fill="#D1D5DB"/>
<path d="M302.225 81.7014H121.015V86.4824H302.225V81.7014Z" fill="#D1D5DB"/>
<path d="M404.351 81.7014H317.063V86.4824H404.351V81.7014Z" fill="#6B7280"/>
<path d="M333.958 104.302H121.015V109.083H333.958V104.302Z" fill="#D1D5DB"/>
<path d="M419.134 104.302H348.796V109.083H419.134V104.302Z" fill="#6B7280"/>
<path d="M193.873 190.565H121.015V195.346H193.873V190.565Z" fill="#D1D5DB"/>
<path d="M268.491 201.866H121.015V206.647H268.491V201.866Z" fill="#6B7280"/>
<path d="M367.043 201.866H283.329V206.647H367.043V201.866Z" fill="#6B7280"/>
<path d="M238.166 224.467H121.015V229.248H238.166V224.467Z" fill="#6B7280"/>
<path d="M367.043 224.467H253.004V229.248H367.043V224.467Z" fill="#D1D5DB"/>
<path d="M302.225 213.166H121.015V217.947H302.225V213.166Z" fill="#D1D5DB"/>
<path d="M404.351 213.166H317.063V217.947H404.351V213.166Z" fill="#6B7280"/>
<path d="M333.958 235.767H121.015V240.549H333.958V235.767Z" fill="#D1D5DB"/>
<path d="M419.134 235.767H348.796V240.549H419.134V235.767Z" fill="#6B7280"/>
<path d="M204.201 131.25H121.015V136.031H204.201V131.25Z" fill="#D1D5DB"/>
<path d="M367.043 131.25H219.039V136.031H367.043V131.25Z" fill="#D1D5DB"/>
<path d="M238.166 153.851H121.015V158.632H238.166V153.851Z" fill="#D1D5DB"/>
<path d="M305.8 153.851H253.004V158.632H305.8V153.851Z" fill="#D1D5DB"/>
<path d="M333.958 142.55H121.015V147.331H333.958V142.55Z" fill="#6B7280"/>
<path d="M404.351 142.55H348.796V147.331H404.351V142.55Z" fill="#6B7280"/>
<path d="M267.435 165.151H121.015V169.932H267.435V165.151Z" fill="#6B7280"/>
<path d="M352.612 165.151H282.273V169.932H352.612V165.151Z" fill="#6B7280"/>
<path d="M204.201 176.519H121.015V181.3H204.201V176.519Z" fill="#D1D5DB"/>
<path d="M367.043 176.519H219.039V181.3H367.043V176.519Z" fill="#6B7280"/>
<path d="M193.873 117.776H121.015V122.557H193.873V117.776Z" fill="#6B7280"/>
<path d="M224.187 63.8815H222.05V80.0566H224.187V63.8815Z" fill="#6985F3"/>
<path d="M226.766 64.9494V62.8131H219.471V64.9494H226.766Z" fill="#6985F3"/>
<path d="M226.766 80.7188V78.5825H219.471V80.7188H226.766Z" fill="#6985F3"/>
<path d="M176.077 93.3441H215.741V77.2101H176.077V93.3441Z" fill="#6985F3"/>
<path d="M186.049 85.5305L191.909 82.6881V83.8003L187.26 85.9631V85.9877L191.909 88.1629V89.2627L186.049 86.4204V85.5305Z" fill="white" stroke="white" stroke-width="0.628" stroke-miterlimit="10"/>
<path d="M193.258 89.757L196.275 80.7973H197.338L194.32 89.757H193.258Z" fill="white" stroke="white" stroke-width="0.628" stroke-miterlimit="10"/>
<path d="M204.436 86.445L198.576 89.2627V88.1629L203.299 85.9877V85.9631L198.576 83.788V82.6881L204.436 85.5058V86.445Z" fill="white" stroke="white" stroke-width="0.628" stroke-miterlimit="10"/>
<path d="M192.11 171.001H189.972V187.176H192.11V171.001Z" fill="#5233DD"/>
<path d="M194.688 172.068V169.932H187.394V172.068H194.688Z" fill="#5233DD"/>
<path d="M194.688 187.838V185.702H187.394V187.838H194.688Z" fill="#5233DD"/>
<path d="M144.305 200.103H183.968V183.969H144.305V200.103Z" fill="#5233DD"/>
<path d="M154.486 191.833L160.347 188.991V190.103L155.698 192.266V192.29L160.347 194.465V195.565L154.486 192.723V191.833Z" fill="white" stroke="white" stroke-width="0.628" stroke-miterlimit="10"/>
<path d="M161.696 196.061L164.713 187.102H165.776L162.76 196.061H161.696Z" fill="white" stroke="white" stroke-width="0.628" stroke-miterlimit="10"/>
<path d="M172.874 192.747L167.013 195.565V194.464L171.736 192.289V192.264L167.013 190.089V188.989L172.874 191.807V192.747Z" fill="white" stroke="white" stroke-width="0.628" stroke-miterlimit="10"/>
<path d="M381.289 134.666H379.152V150.841H381.289V134.666Z" fill="#0EA5E9"/>
<path d="M383.868 135.734V133.597H376.574V135.734H383.868Z" fill="#0EA5E9"/>
<path d="M383.868 151.503V149.367H376.573V151.503H383.868Z" fill="#0EA5E9"/>
<path d="M430.968 144.653H391.305V160.787H430.968V144.653Z" fill="#0EA5E9"/>
<path d="M402.116 152.279L407.977 149.436V150.548L403.328 152.711V152.736L407.977 154.911V156.011L402.116 153.168V152.279Z" fill="white" stroke="white" stroke-width="0.628" stroke-miterlimit="10"/>
<path d="M409.325 156.505L412.343 147.545H413.406L410.389 156.505H409.325Z" fill="white" stroke="white" stroke-width="0.628" stroke-miterlimit="10"/>
<path d="M420.504 153.193L414.643 156.011V154.911L419.366 152.736V152.711L414.643 150.536V149.436L420.504 152.254V153.193Z" fill="white" stroke="white" stroke-width="0.628" stroke-miterlimit="10"/>
</g>
<defs>
<clipPath id="clip0_7_220">
<rect width="543" height="292" fill="white" transform="translate(0.5)"/>
</clipPath>
</defs>
</svg>
