<svg width="330" height="178" viewBox="0 0 330 178" fill="none" xmlns="http://www.w3.org/2000/svg">
<g clip-path="url(#clip0_9_370)">
<path d="M30.2655 175.637C24.5121 175.7 18.7536 175.3 12.2108 171.552C10.8686 170.784 9.47316 169.712 9.52172 168.339C9.55807 167.306 10.4627 166.402 11.5543 165.935C11.9622 165.765 12.3923 165.636 12.8357 165.55C12.8379 165.55 12.8404 165.55 12.8404 165.548C13.525 165.424 14.2217 165.353 14.9215 165.337L15.121 165.33C18.4524 165.227 21.7836 165.541 25.0069 166.261C25.2987 166.325 25.6078 166.304 25.8836 166.201C26.1595 166.098 26.386 165.918 26.5261 165.692C26.6663 165.466 26.7118 165.207 26.6554 164.956C26.5989 164.705 26.4438 164.478 26.2153 164.311C25.7991 164.01 25.3477 163.745 24.8681 163.521C24.1647 163.2 23.4273 162.935 22.6655 162.73C21.6494 162.448 20.5988 162.237 19.5632 162.008C15.7143 161.163 11.9514 160.059 8.31079 158.705C5.71189 157.738 3.09413 156.591 1.31602 154.716C0.499392 153.854 -0.135487 152.775 0.0248975 151.678C0.29239 149.875 2.58023 148.764 4.7124 148.537C8.44953 148.142 12.0965 149.554 15.4232 151.046C18.183 152.288 21.2659 153.654 24.2782 152.95C24.7998 152.852 25.2757 152.625 25.647 152.3C26.328 151.633 26.1601 150.567 25.5524 149.851C24.9447 149.134 24.001 148.688 23.0917 148.26C17.8084 145.775 12.5327 143.13 8.31662 139.467C4.10055 135.803 0.99886 130.962 0.994975 125.845C0.994975 124.349 1.26968 122.818 2.10851 121.5C2.94734 120.182 4.41577 119.098 6.1567 118.828C8.52723 118.457 10.8614 119.612 12.6556 120.973C18.819 125.641 21.2773 132.759 24.9178 139.045C25.9367 140.805 27.1158 142.573 28.9954 143.736C29.1711 143.849 29.3734 143.929 29.5887 143.97C30.8576 144.201 31.412 142.882 31.4703 141.875C31.6964 137.894 30.539 133.731 32.2508 130.018C32.9049 128.604 34.0792 127.249 35.7885 126.79C37.8771 126.23 40.2257 127.214 41.4802 128.735C42.7347 130.256 43.0726 132.188 43.0618 134.044C43.0424 137.484 41.9436 140.869 40.3292 144.025C39.4781 145.69 38.457 147.417 38.7001 149.218C38.7964 149.826 39.0748 150.404 39.5088 150.895C39.9428 151.387 40.518 151.777 41.1799 152.027C41.4869 152.138 41.817 152.195 42.1506 152.196C42.4843 152.197 42.8147 152.141 43.1223 152.031C43.786 151.79 44.2919 151.326 44.7783 150.875C44.9823 150.685 45.1865 150.494 45.3932 150.304C46.2053 149.551 47.0174 148.797 47.8295 148.042C49.8937 146.124 52.4735 144.035 55.5158 144.364C57.0697 144.533 58.3555 145.351 59.2357 146.451C60.0287 147.452 60.4759 148.62 60.5268 149.825C60.6192 152.334 58.1102 160.075 56.6976 162.281C55.0485 164.857 49.9503 175.42 30.2655 175.637Z" fill="#0EA5E9"/>
<path d="M299.736 175.637C305.489 175.7 311.248 175.3 317.79 171.552C319.133 170.784 320.528 169.712 320.48 168.339C320.443 167.305 319.539 166.402 318.447 165.935C318.039 165.765 317.609 165.636 317.166 165.55C317.163 165.55 317.161 165.55 317.161 165.548C316.476 165.424 315.78 165.353 315.08 165.337L314.88 165.33C311.549 165.227 308.218 165.541 304.994 166.261C304.703 166.325 304.394 166.304 304.118 166.201C303.842 166.097 303.616 165.918 303.476 165.692C303.335 165.466 303.29 165.206 303.346 164.956C303.403 164.705 303.558 164.478 303.786 164.311C304.202 164.009 304.654 163.745 305.133 163.521C305.837 163.2 306.574 162.935 307.336 162.73C308.352 162.448 309.403 162.237 310.438 162.008C314.287 161.163 318.05 160.059 321.69 158.706C324.29 157.739 326.907 156.592 328.686 154.717C329.502 153.855 330.137 152.776 329.976 151.679C329.709 149.877 327.421 148.765 325.289 148.539C321.552 148.143 317.905 149.555 314.578 151.048C311.819 152.289 308.735 153.655 305.723 152.951C305.201 152.853 304.726 152.626 304.354 152.301C303.674 151.634 303.841 150.568 304.449 149.852C305.057 149.135 306 148.689 306.91 148.261C312.193 145.776 317.469 143.132 321.685 139.468C325.9 135.804 329 130.963 329.005 125.846C329.005 124.35 328.731 122.819 327.892 121.501C327.053 120.183 325.585 119.099 323.844 118.829C321.473 118.458 319.139 119.613 317.345 120.974C311.181 125.642 308.723 132.759 305.084 139.045C304.065 140.805 302.886 142.573 301.006 143.736C300.83 143.849 300.628 143.929 300.413 143.971C299.144 144.201 298.59 142.882 298.531 141.876C298.305 137.895 299.463 133.731 297.751 130.018C297.097 128.604 295.922 127.25 294.213 126.791C292.125 126.231 289.776 127.215 288.521 128.736C287.267 130.257 286.929 132.189 286.94 134.045C286.959 137.484 288.058 140.87 289.673 144.025C290.523 145.69 291.545 147.417 291.301 149.218C291.205 149.827 290.927 150.404 290.493 150.896C290.059 151.387 289.484 151.777 288.822 152.028C288.515 152.138 288.185 152.196 287.851 152.196C287.517 152.197 287.187 152.141 286.879 152.032C286.216 151.791 285.71 151.327 285.224 150.875C285.019 150.686 284.815 150.494 284.608 150.305C283.796 149.552 282.984 148.798 282.172 148.043C280.108 146.124 277.528 144.035 274.486 144.365C272.932 144.533 271.646 145.351 270.766 146.452C269.973 147.452 269.526 148.621 269.475 149.825C269.383 152.334 271.891 160.075 273.304 162.282C274.951 164.857 280.05 175.42 299.736 175.637Z" fill="#0EA5E9"/>
<path d="M294.427 165.88H35.5726C32.3345 165.88 29.7094 168.506 29.7094 171.746V171.746C29.7094 174.985 32.3345 177.611 35.5726 177.611H294.427C297.665 177.611 300.291 174.985 300.291 171.746V171.746C300.291 168.506 297.665 165.88 294.427 165.88Z" fill="#D1D5DB"/>
<path d="M273.466 0H55.6654C50.896 0 47.0296 3.86799 47.0296 8.6394V159.147C47.0296 163.918 50.896 167.786 55.6654 167.786H273.466C278.235 167.786 282.102 163.918 282.102 159.147V8.6394C282.102 3.86799 278.235 0 273.466 0Z" fill="#D1D5DB"/>
<path d="M272.929 5.892H56.2018C54.0931 5.892 52.3836 7.60216 52.3836 9.71174V157.888C52.3836 159.997 54.0931 161.708 56.2018 161.708H272.929C275.038 161.708 276.747 159.997 276.747 157.888V9.71174C276.747 7.60216 275.038 5.892 272.929 5.892Z" fill="#6B7280"/>
<path d="M268.986 14.1589H59.3506V154.45H268.986V14.1589Z" fill="white"/>
<path d="M268.986 14.1589H59.3506V25.7153H268.986V14.1589Z" fill="#D1D5DB"/>
<path d="M262.501 22.8369C264.101 22.8369 265.399 21.5387 265.399 19.9373C265.399 18.336 264.101 17.0378 262.501 17.0378C260.9 17.0378 259.602 18.336 259.602 19.9373C259.602 21.5387 260.9 22.8369 262.501 22.8369Z" fill="white"/>
<path d="M117.519 35.9484H73.2411V38.8565H117.519V35.9484Z" fill="#6B7280"/>
<path d="M162.867 42.822H73.2411V45.7301H162.867V42.822Z" fill="#D1D5DB"/>
<path d="M222.761 42.822H171.885V45.7301H222.761V42.822Z" fill="#D1D5DB"/>
<path d="M144.438 56.5692H73.2411V59.4773H144.438V56.5692Z" fill="#D1D5DB"/>
<path d="M222.761 56.5692H153.455V59.4773H222.761V56.5692Z" fill="#D1D5DB"/>
<path d="M183.368 49.6956H73.2411V52.6037H183.368V49.6956Z" fill="#D1D5DB"/>
<path d="M245.435 49.6956H192.386V52.6037H245.435V49.6956Z" fill="#6B7280"/>
<path d="M202.654 63.4427H73.2411V66.3509H202.654V63.4427Z" fill="#D1D5DB"/>
<path d="M254.419 63.4427H211.671V66.3509H254.419V63.4427Z" fill="#6B7280"/>
<path d="M117.519 115.913H73.2411V118.821H117.519V115.913Z" fill="#D1D5DB"/>
<path d="M162.867 122.786H73.2411V125.695H162.867V122.786Z" fill="#6B7280"/>
<path d="M222.761 122.786H171.885V125.695H222.761V122.786Z" fill="#6B7280"/>
<path d="M144.438 136.534H73.2411V139.442H144.438V136.534Z" fill="#6B7280"/>
<path d="M222.761 136.534H153.455V139.442H222.761V136.534Z" fill="#D1D5DB"/>
<path d="M183.368 129.66H73.2411V132.568H183.368V129.66Z" fill="#D1D5DB"/>
<path d="M245.435 129.66H192.386V132.568H245.435V129.66Z" fill="#6B7280"/>
<path d="M202.654 143.408H73.2411V146.316H202.654V143.408Z" fill="#D1D5DB"/>
<path d="M254.419 143.408H211.671V146.316H254.419V143.408Z" fill="#6B7280"/>
<path d="M123.796 79.8338H73.2411V82.7419H123.796V79.8338Z" fill="#D1D5DB"/>
<path d="M222.761 79.8338H132.813V82.7419H222.761V79.8338Z" fill="#D1D5DB"/>
<path d="M144.438 93.581H73.2411V96.4891H144.438V93.581Z" fill="#D1D5DB"/>
<path d="M185.541 93.581H153.455V96.4891H185.541V93.581Z" fill="#D1D5DB"/>
<path d="M202.654 86.7074H73.2411V89.6155H202.654V86.7074Z" fill="#6B7280"/>
<path d="M245.435 86.7074H211.671V89.6155H245.435V86.7074Z" fill="#6B7280"/>
<path d="M162.226 100.455H73.2411V103.363H162.226V100.455Z" fill="#6B7280"/>
<path d="M213.991 100.455H171.243V103.363H213.991V100.455Z" fill="#6B7280"/>
<path d="M123.796 107.369H73.2411V110.277H123.796V107.369Z" fill="#D1D5DB"/>
<path d="M222.761 107.369H132.813V110.277H222.761V107.369Z" fill="#6B7280"/>
<path d="M117.519 71.6382H73.2411V74.5464H117.519V71.6382Z" fill="#6B7280"/>
<path d="M135.942 38.8564H134.643V48.6951H135.942V38.8564Z" fill="#6985F3"/>
<path d="M137.51 39.506V38.2066H133.076V39.506H137.51Z" fill="#6985F3"/>
<path d="M137.51 49.0979V47.7985H133.076V49.0979H137.51Z" fill="#6985F3"/>
<path d="M106.704 56.7773H130.809V46.9637H106.704V56.7773Z" fill="#6985F3"/>
<path d="M112.765 52.0246L116.326 50.2957V50.9722L113.501 52.2878V52.3027L116.326 53.6258V54.2948L112.765 52.5659V52.0246Z" fill="white" stroke="white" stroke-width="0.628" stroke-miterlimit="10"/>
<path d="M117.146 54.5954L118.979 49.1456H119.626L117.791 54.5954H117.146Z" fill="white" stroke="white" stroke-width="0.628" stroke-miterlimit="10"/>
<path d="M123.939 52.5809L120.378 54.2948V53.6258L123.248 52.3027V52.2878L120.378 50.9647V50.2957L123.939 52.0096V52.5809Z" fill="white" stroke="white" stroke-width="0.628" stroke-miterlimit="10"/>
<path d="M116.448 104.013H115.149V113.851H116.448V104.013Z" fill="#5233DD"/>
<path d="M118.015 104.662V103.363H113.582V104.662H118.015Z" fill="#5233DD"/>
<path d="M118.015 114.254V112.955H113.582V114.254H118.015Z" fill="#5233DD"/>
<path d="M87.3952 121.714H111.5V111.901H87.3952V121.714Z" fill="#5233DD"/>
<path d="M93.5827 116.684L97.1445 114.955V115.632L94.3192 116.947V116.962L97.1445 118.285V118.954L93.5827 117.225V116.684Z" fill="white" stroke="white" stroke-width="0.628" stroke-miterlimit="10"/>
<path d="M97.9642 119.256L99.7978 113.806H100.444L98.6107 119.256H97.9642Z" fill="white" stroke="white" stroke-width="0.628" stroke-miterlimit="10"/>
<path d="M104.757 117.24L101.196 118.954V118.284L104.066 116.961V116.946L101.196 115.623V114.954L104.757 116.668V117.24Z" fill="white" stroke="white" stroke-width="0.628" stroke-miterlimit="10"/>
<path d="M231.419 81.9116H230.12V91.7502H231.419V81.9116Z" fill="#0EA5E9"/>
<path d="M232.986 82.5611V81.2617H228.553V82.5611H232.986Z" fill="#0EA5E9"/>
<path d="M232.986 92.153V90.8536H228.553V92.153H232.986Z" fill="#0EA5E9"/>
<path d="M261.611 87.9865H237.506V97.8001H261.611V87.9865Z" fill="#0EA5E9"/>
<path d="M244.076 92.6249L247.638 90.8958V91.5723L244.813 92.8878V92.9031L247.638 94.2258V94.8951L244.076 93.1659V92.6249Z" fill="white" stroke="white" stroke-width="0.628" stroke-miterlimit="10"/>
<path d="M248.457 95.1957L250.291 89.7457H250.937L249.104 95.1957H248.457Z" fill="white" stroke="white" stroke-width="0.628" stroke-miterlimit="10"/>
<path d="M255.251 93.1809L251.689 94.8951V94.2258L254.56 92.9031V92.8878L251.689 91.5648V90.8958L255.251 92.6096V93.1809Z" fill="white" stroke="white" stroke-width="0.628" stroke-miterlimit="10"/>
</g>
<rect x="287.962" y="84.0764" width="31.5287" height="31.5287" rx="15.7643" fill="#1F2937"/>
<g clip-path="url(#clip1_9_370)">
<path d="M298.776 97.2158C299.373 97.2158 299.945 96.9853 300.367 96.5751C300.789 96.1648 301.026 95.6084 301.026 95.0283C301.026 94.4481 300.789 93.8917 300.367 93.4815C299.945 93.0712 299.373 92.8408 298.776 92.8408C298.179 92.8408 297.607 93.0712 297.185 93.4815C296.763 93.8917 296.526 94.4481 296.526 95.0283C296.526 95.6084 296.763 96.1648 297.185 96.5751C297.607 96.9853 298.179 97.2158 298.776 97.2158ZM309.126 97.2158C309.723 97.2158 310.295 96.9853 310.717 96.5751C311.139 96.1648 311.376 95.6084 311.376 95.0283C311.376 94.4481 311.139 93.8917 310.717 93.4815C310.295 93.0712 309.723 92.8408 309.126 92.8408C308.529 92.8408 307.957 93.0712 307.535 93.4815C307.113 93.8917 306.876 94.4481 306.876 95.0283C306.876 95.6084 307.113 96.1648 307.535 96.5751C307.957 96.9853 308.529 97.2158 309.126 97.2158ZM294.726 101.008C294.726 101.328 294.996 101.591 295.325 101.591H301.324C301.33 101.591 301.335 101.591 301.344 101.591C300.596 100.948 300.126 100.01 300.126 98.9658C300.126 98.7579 300.146 98.5556 300.18 98.356C299.797 98.1837 299.372 98.0908 298.925 98.0908H297.724C296.07 98.0908 294.726 99.3978 294.726 101.008ZM303.726 101.591C304.401 101.591 305.017 101.35 305.49 100.954C305.56 100.852 305.636 100.754 305.715 100.661C305.79 100.571 305.875 100.494 305.968 100.434C306.257 100.013 306.426 99.5099 306.426 98.9658C306.426 97.5165 305.217 96.3408 303.726 96.3408C302.235 96.3408 301.026 97.5165 301.026 98.9658C301.026 100.415 302.235 101.591 303.726 101.591ZM305.565 103.237C305.276 103.076 305.056 102.794 304.98 102.466H302.078C300.005 102.466 298.326 104.098 298.326 106.111C298.326 106.513 298.661 106.841 299.077 106.841H307.531C307.472 106.699 307.441 106.543 307.441 106.392V106.31C307.405 106.291 307.365 106.269 307.329 106.247L307.256 106.288C306.783 106.554 306.117 106.507 305.717 106.023C305.591 105.87 305.475 105.709 305.369 105.542L305.366 105.536L305.363 105.531L305.295 105.419L305.293 105.413L305.29 105.408C305.194 105.238 305.11 105.063 305.037 104.88C304.806 104.301 305.099 103.715 305.571 103.45L305.647 103.409C305.647 103.387 305.647 103.368 305.647 103.346C305.647 103.324 305.647 103.305 305.647 103.283L305.571 103.242L305.565 103.237ZM309.725 98.0908H308.524C308.077 98.0908 307.652 98.1865 307.27 98.356C307.306 98.5529 307.323 98.7579 307.323 98.9658C307.323 99.4415 307.225 99.8927 307.05 100.306C307.121 100.33 307.188 100.36 307.25 100.396L307.323 100.437C307.36 100.415 307.396 100.393 307.436 100.374V100.292C307.436 99.7615 307.81 99.2228 308.443 99.1271C308.665 99.0943 308.893 99.0751 309.123 99.0751C309.354 99.0751 309.582 99.0915 309.804 99.1271C310.437 99.2228 310.811 99.7615 310.811 100.292V100.374C310.847 100.393 310.887 100.415 310.923 100.437L310.996 100.396C311.469 100.131 312.135 100.177 312.535 100.661C312.6 100.738 312.661 100.82 312.72 100.899C312.661 99.3376 311.342 98.0908 309.722 98.0908H309.725ZM312.293 102.572C312.47 102.474 312.56 102.269 312.484 102.08C312.425 101.93 312.355 101.785 312.276 101.645L312.211 101.536C312.124 101.397 312.029 101.265 311.925 101.14C311.795 100.984 311.567 100.956 311.39 101.058L311.309 101.104C311.05 101.249 310.735 101.213 310.476 101.068C310.217 100.924 310.023 100.672 310.023 100.382V100.289C310.023 100.09 309.885 99.9119 309.683 99.8818C309.5 99.8544 309.315 99.8408 309.123 99.8408C308.932 99.8408 308.746 99.8544 308.564 99.8818C308.361 99.9119 308.223 100.09 308.223 100.289V100.382C308.223 100.672 308.029 100.924 307.77 101.068C307.512 101.213 307.197 101.249 306.938 101.104L306.856 101.058C306.679 100.959 306.451 100.986 306.322 101.14C306.218 101.265 306.122 101.399 306.035 101.539L305.97 101.645C305.892 101.785 305.821 101.93 305.762 102.08C305.689 102.266 305.776 102.471 305.954 102.57L306.035 102.616C306.294 102.761 306.42 103.048 306.42 103.338C306.42 103.628 306.294 103.915 306.035 104.06L305.951 104.106C305.774 104.205 305.684 104.41 305.76 104.596C305.819 104.746 305.889 104.888 305.968 105.028L306.035 105.14C306.12 105.279 306.215 105.411 306.319 105.536C306.449 105.692 306.676 105.72 306.854 105.618L306.935 105.572C307.194 105.427 307.509 105.463 307.768 105.608C308.026 105.752 308.22 106.004 308.22 106.294V106.387C308.22 106.586 308.358 106.764 308.561 106.794C308.744 106.822 308.929 106.835 309.12 106.835C309.312 106.835 309.497 106.822 309.68 106.794C309.883 106.764 310.02 106.586 310.02 106.387V106.294C310.02 106.004 310.215 105.752 310.473 105.608C310.732 105.463 311.047 105.427 311.306 105.572L311.387 105.618C311.565 105.717 311.792 105.69 311.922 105.536C312.026 105.411 312.121 105.279 312.206 105.14L312.273 105.025C312.352 104.886 312.422 104.743 312.481 104.593C312.555 104.407 312.467 104.202 312.29 104.104L312.206 104.057C311.947 103.912 311.82 103.625 311.82 103.335C311.82 103.045 311.947 102.758 312.206 102.613L312.29 102.567L312.293 102.572ZM308.001 103.341C308.001 103.051 308.12 102.772 308.331 102.567C308.542 102.362 308.828 102.247 309.126 102.247C309.424 102.247 309.711 102.362 309.922 102.567C310.133 102.772 310.251 103.051 310.251 103.341C310.251 103.631 310.133 103.909 309.922 104.114C309.711 104.319 309.424 104.435 309.126 104.435C308.828 104.435 308.542 104.319 308.331 104.114C308.12 103.909 308.001 103.631 308.001 103.341Z" fill="#F3F4F6"/>
</g>
<rect x="10.5095" width="31.5287" height="31.5287" rx="15.7643" fill="#1F2937"/>
<g clip-path="url(#clip2_9_370)">
<path d="M21.0238 10.5143C21.0238 10.0304 20.6328 9.63934 20.1488 9.63934C19.6649 9.63934 19.2738 10.0304 19.2738 10.5143V19.7018C19.2738 20.9104 20.2528 21.8893 21.4613 21.8893H32.3988C32.8828 21.8893 33.2738 21.4983 33.2738 21.0143C33.2738 20.5304 32.8828 20.1393 32.3988 20.1393H21.4613C21.2207 20.1393 21.0238 19.9425 21.0238 19.7018V10.5143ZM32.1418 12.8823C32.4836 12.5405 32.4836 11.9854 32.1418 11.6436C31.8 11.3018 31.2449 11.3018 30.9031 11.6436L28.0238 14.5257L26.4543 12.9561C26.1125 12.6143 25.5574 12.6143 25.2156 12.9561L22.1531 16.0186C21.8113 16.3604 21.8113 16.9155 22.1531 17.2573C22.4949 17.5991 23.05 17.5991 23.3918 17.2573L25.8363 14.8155L27.4059 16.385C27.7477 16.7268 28.3028 16.7268 28.6446 16.385L32.1446 12.885L32.1418 12.8823Z" fill="#F3F4F6"/>
</g>
<rect x="287.962" width="31.5287" height="31.5287" rx="15.7643" fill="#1F2937"/>
<g clip-path="url(#clip3_9_370)">
<path d="M308.976 21.8893H298.476C297.511 21.8893 296.726 21.1046 296.726 20.1393V14.0143H310.726V20.1393C310.726 21.1046 309.941 21.8893 308.976 21.8893ZM310.726 13.1393H296.726V11.3893C296.726 10.4241 297.511 9.63934 298.476 9.63934H301.976C302.526 9.63934 303.045 9.89911 303.376 10.3393L303.901 11.0393C304.065 11.2608 304.325 11.3893 304.601 11.3893H308.976C309.941 11.3893 310.726 12.1741 310.726 13.1393Z" fill="#F3F4F6"/>
</g>
<rect x="-3.05176e-05" y="42.0382" width="31.5287" height="31.5287" rx="15.7643" fill="#1F2937"/>
<g clip-path="url(#clip4_9_370)">
<path d="M15.7643 50.8026C16.2621 50.8026 16.6643 51.1936 16.6643 51.6776V52.6537C16.7093 52.6592 16.7515 52.6647 16.7965 52.6729C16.8077 52.6756 16.8162 52.6756 16.8274 52.6783L18.1774 52.919C18.6668 53.0065 18.9902 53.4631 18.9002 53.9361C18.8102 54.4092 18.3406 54.7264 17.854 54.6389L16.5181 54.401C15.6377 54.2752 14.8615 54.36 14.3159 54.5705C13.7702 54.7811 13.5509 55.0709 13.5002 55.3389C13.444 55.6315 13.4862 55.7955 13.534 55.8967C13.5846 56.0033 13.6887 56.1236 13.894 56.2576C14.3524 56.5502 15.0556 56.7416 15.9668 56.9768L16.0484 56.9986C16.8527 57.2065 17.8371 57.458 18.5684 57.9229C18.9677 58.1772 19.3446 58.5217 19.5781 59.0029C19.8171 59.4924 19.8677 60.0393 19.7581 60.6217C19.564 61.6608 18.8271 62.3553 17.9131 62.719C17.5277 62.8721 17.1087 62.9705 16.6643 63.0197V63.933C16.6643 64.417 16.2621 64.808 15.7643 64.808C15.2665 64.808 14.8643 64.417 14.8643 63.933V62.9787C14.8531 62.976 14.839 62.976 14.8277 62.9733H14.8221C14.1359 62.8693 13.0081 62.5822 12.2487 62.2541C11.7959 62.0572 11.5906 61.5404 11.7931 61.1002C11.9956 60.66 12.5271 60.4604 12.9799 60.6572C13.5677 60.9115 14.5352 61.1631 15.0949 61.2479C15.9921 61.3764 16.7318 61.3026 17.2324 61.1029C17.7077 60.9143 17.9243 60.6408 17.9862 60.3127C18.0396 60.0229 17.9974 59.8561 17.9496 59.7549C17.8962 59.6455 17.7921 59.5252 17.584 59.3912C17.1227 59.0986 16.4168 58.9072 15.5027 58.6721L15.424 58.6529C14.6224 58.4397 13.6381 58.1854 12.9068 57.7205C12.5074 57.4662 12.1334 57.119 11.8999 56.6377C11.6637 56.1483 11.6159 55.6014 11.7284 55.019C11.9309 53.9744 12.7352 53.2963 13.6493 52.9436C14.0234 52.7986 14.434 52.7002 14.8643 52.6428V51.6776C14.8643 51.1936 15.2665 50.8026 15.7643 50.8026Z" fill="#F3F4F6"/>
</g>
<rect x="298.471" y="42.0382" width="31.5287" height="31.5287" rx="15.7643" fill="#1F2937"/>
<g clip-path="url(#clip5_9_370)">
<path d="M312.093 54.7401V56.0526H316.379V54.7401C316.379 53.5315 315.42 52.5526 314.236 52.5526C313.052 52.5526 312.093 53.5315 312.093 54.7401ZM310.379 56.0526V54.7401C310.379 52.5662 312.106 50.8026 314.236 50.8026C316.365 50.8026 318.093 52.5662 318.093 54.7401V56.0526H318.521C319.467 56.0526 320.236 56.8373 320.236 57.8026V63.0526C320.236 64.0178 319.467 64.8026 318.521 64.8026H309.95C309.004 64.8026 308.236 64.0178 308.236 63.0526V57.8026C308.236 56.8373 309.004 56.0526 309.95 56.0526H310.379Z" fill="#F3F4F6"/>
</g>
<rect x="10.5095" y="84.0764" width="31.5287" height="31.5287" rx="15.7643" fill="#1F2937"/>
<g clip-path="url(#clip6_9_370)">
<path d="M23.4328 93.8853C23.7035 94.1287 23.7254 94.5416 23.482 94.8123L21.5133 96.9998C21.393 97.1338 21.2235 97.2131 21.043 97.2158C20.8625 97.2185 20.6902 97.1502 20.5617 97.0244L19.4652 95.9306C19.211 95.6736 19.211 95.258 19.4652 95.0009C19.7195 94.7439 20.1379 94.7439 20.3922 95.0009L20.9965 95.6052L22.5031 93.9318C22.7465 93.6611 23.1594 93.6392 23.4301 93.8826L23.4328 93.8853ZM23.4328 98.2603C23.7035 98.5037 23.7254 98.9166 23.482 99.1873L21.5133 101.375C21.393 101.509 21.2235 101.588 21.043 101.591C20.8625 101.594 20.6902 101.525 20.5617 101.399L19.4652 100.306C19.2082 100.049 19.2082 99.633 19.4652 99.3787C19.7223 99.1244 20.1379 99.1216 20.3922 99.3787L20.9965 99.983L22.5031 98.3095C22.7465 98.0388 23.1594 98.017 23.4301 98.2603H23.4328ZM25.3988 95.4658C25.3988 94.9818 25.7899 94.5908 26.2738 94.5908H32.3988C32.8828 94.5908 33.2738 94.9818 33.2738 95.4658C33.2738 95.9498 32.8828 96.3408 32.3988 96.3408H26.2738C25.7899 96.3408 25.3988 95.9498 25.3988 95.4658ZM25.3988 99.8408C25.3988 99.3568 25.7899 98.9658 26.2738 98.9658H32.3988C32.8828 98.9658 33.2738 99.3568 33.2738 99.8408C33.2738 100.325 32.8828 100.716 32.3988 100.716H26.2738C25.7899 100.716 25.3988 100.325 25.3988 99.8408ZM23.6488 104.216C23.6488 103.732 24.0399 103.341 24.5238 103.341H32.3988C32.8828 103.341 33.2738 103.732 33.2738 104.216C33.2738 104.7 32.8828 105.091 32.3988 105.091H24.5238C24.0399 105.091 23.6488 104.7 23.6488 104.216ZM20.5863 102.903C20.9344 102.903 21.2683 103.042 21.5144 103.288C21.7606 103.534 21.8988 103.868 21.8988 104.216C21.8988 104.564 21.7606 104.898 21.5144 105.144C21.2683 105.39 20.9344 105.528 20.5863 105.528C20.2382 105.528 19.9044 105.39 19.6583 105.144C19.4121 104.898 19.2738 104.564 19.2738 104.216C19.2738 103.868 19.4121 103.534 19.6583 103.288C19.9044 103.042 20.2382 102.903 20.5863 102.903Z" fill="#F3F4F6"/>
</g>
<defs>
<clipPath id="clip0_9_370">
<rect width="330" height="177.611" fill="white"/>
</clipPath>
<clipPath id="clip1_9_370">
<rect width="18" height="14" fill="white" transform="translate(294.726 92.8408)"/>
</clipPath>
<clipPath id="clip2_9_370">
<rect width="14" height="14" fill="white" transform="translate(19.2738 8.76434)"/>
</clipPath>
<clipPath id="clip3_9_370">
<rect width="14" height="14" fill="white" transform="translate(296.726 8.76434)"/>
</clipPath>
<clipPath id="clip4_9_370">
<rect width="9" height="14" fill="white" transform="translate(11.2643 50.8026)"/>
</clipPath>
<clipPath id="clip5_9_370">
<rect width="12" height="14" fill="white" transform="translate(308.236 50.8026)"/>
</clipPath>
<clipPath id="clip6_9_370">
<rect width="14" height="14" fill="white" transform="translate(19.2738 92.8408)"/>
</clipPath>
</defs>
</svg>
