<svg width="73" height="65" viewBox="0 0 73 65" fill="none" xmlns="http://www.w3.org/2000/svg">
<path d="M29.9846 2.46718C30.8498 2.38641 31.6756 2.33846 32.5049 2.6477C33.47 3.00759 34.2262 3.77827 34.6459 4.71528C34.6983 4.83111 34.7449 4.94927 34.7855 5.06977C34.8262 5.19023 34.8608 5.31246 34.8893 5.43645C34.9179 5.56041 34.9402 5.6855 34.9562 5.81173C34.9723 5.93793 34.9821 6.06463 34.9856 6.19183C34.9891 6.31901 34.9862 6.44606 34.9771 6.57299C34.9679 6.69988 34.9525 6.82601 34.9308 6.95137C34.9091 7.07673 34.8812 7.20069 34.8472 7.32325C34.8132 7.44582 34.7732 7.56637 34.7271 7.68491C34.3465 8.66309 33.5791 9.52705 32.6136 9.94791C31.5701 10.4027 30.3378 10.2459 29.3055 9.83385C28.2239 9.40208 27.766 8.64686 27.3265 7.62334C26.3375 7.66578 24.4176 7.28304 23.6834 7.98353C23.229 8.41714 14.7066 23.3057 14.7046 23.3965C15.8396 23.5726 17.1102 23.4635 18.2607 23.4621C20.7279 23.4589 23.2085 23.4146 25.6734 23.5273C25.9235 22.9941 26.1859 22.5299 26.5821 22.0888C27.5938 20.9622 28.9238 20.8644 30.335 20.7976C31.194 18.9058 32.4214 17.1103 33.455 15.308C35.3903 11.8686 37.3632 8.45117 39.3738 5.05568C42.4222 4.6645 45.58 5.15301 48.648 4.92417C49.0076 4.05823 49.446 3.38478 50.2732 2.89784C51.2118 2.34549 52.434 2.25929 53.4723 2.54168C54.4538 2.80861 55.2573 3.46977 55.7566 4.35393C56.3623 5.42609 56.4232 6.50887 56.1078 7.67677C55.7975 8.31515 55.2906 8.97119 54.7346 9.40661C53.4577 10.4063 51.3724 10.5561 50.0409 9.55091C49.4277 9.08824 48.9421 7.80459 48.2034 7.68008C46.1193 7.32887 43.2936 7.8173 40.999 7.52752C39.3878 10.0473 38.0017 12.7621 36.5025 15.3545C35.603 16.9099 33.2061 20.4742 32.7414 22.0603C32.5464 22.7259 34.0164 24.2436 33.2388 26.2267C32.8567 27.2011 32.0862 28.0353 31.1248 28.4466C31.0049 28.4968 30.8829 28.5409 30.7587 28.579C30.6344 28.6171 30.5087 28.6489 30.3813 28.6745C30.254 28.7001 30.1257 28.7194 29.9965 28.7323C29.8673 28.7452 29.7378 28.7517 29.6079 28.7518C29.478 28.7518 29.3485 28.7455 29.2193 28.7327C29.09 28.7199 28.9618 28.7008 28.8344 28.6753C28.707 28.6498 28.5812 28.6181 28.457 28.5802C28.3328 28.5423 28.2107 28.4983 28.0907 28.4482C26.9485 27.9716 26.2587 27.1668 25.798 26.0396C23.3826 26.2324 20.8435 26.0819 18.4167 26.0869C15.7784 26.0923 12.9907 26.2742 10.3678 26.001L10.3092 25.8774C10.4817 25.199 21.4679 6.10427 22.1673 5.31991C22.7334 4.68488 26.318 4.96686 27.3074 4.91477C27.416 4.64064 27.5326 4.35208 27.7001 4.10877C28.2156 3.35962 29.0748 2.63645 29.9846 2.46718ZM28.0809 24.8529C28.2928 25.3484 28.4481 25.8438 28.986 26.0621C29.2612 26.1738 29.6372 26.1655 29.9335 26.1998C30.3713 25.8747 30.7606 25.5183 30.8393 24.9437C30.8821 24.6318 30.8139 24.3146 30.6202 24.0644C30.4105 23.7936 30.0194 23.515 29.6698 23.4793C29.4254 23.4544 29.1547 23.4901 28.9103 23.5148C28.5231 23.9168 28.3004 24.3428 28.0809 24.8529ZM52.721 7.54669C52.7611 7.53539 52.8006 7.5222 52.8395 7.5071C52.8784 7.49203 52.9165 7.47513 52.9538 7.4564C52.9911 7.4377 53.0274 7.41726 53.0627 7.39509C53.098 7.37289 53.1321 7.34907 53.1649 7.32363C53.198 7.29816 53.2298 7.27118 53.2604 7.2427C53.291 7.21421 53.3201 7.18434 53.3476 7.15308C53.3754 7.1218 53.4015 7.08927 53.426 7.0555C53.4508 7.02172 53.4738 6.98686 53.4953 6.95091C53.5164 6.91493 53.5359 6.87802 53.5537 6.8402C53.5717 6.80237 53.5877 6.76376 53.6016 6.72437C53.6158 6.68501 53.6282 6.64506 53.6388 6.60452C53.649 6.56398 53.6575 6.52304 53.6642 6.48169C53.6706 6.44034 53.6752 6.39877 53.678 6.35698C53.6805 6.31521 53.681 6.2734 53.6796 6.23155C53.6782 6.1897 53.6749 6.14801 53.6696 6.1065C53.6643 6.06498 53.6571 6.0238 53.6479 5.98295C53.6388 5.94211 53.6276 5.90181 53.6146 5.86205C53.6015 5.82227 53.5866 5.7832 53.5699 5.74484C53.5532 5.70649 53.5349 5.66902 53.5149 5.63246C53.4946 5.59586 53.4726 5.56031 53.4489 5.52581C53.4253 5.49132 53.4001 5.45802 53.3734 5.42592C53.3467 5.39386 53.3185 5.36312 53.2888 5.33371C53.259 5.30433 53.228 5.27642 53.1957 5.25C53.1635 5.22356 53.1301 5.19872 53.0956 5.17549C53.0609 5.15225 53.0251 5.13073 52.9884 5.1109C52.9517 5.09108 52.9142 5.07305 52.8758 5.05681C52.8374 5.04056 52.7983 5.0262 52.7586 5.0137C52.7188 5.0012 52.6786 4.99062 52.638 4.98195C52.5971 4.97329 52.556 4.96659 52.5145 4.96187C52.4734 4.95714 52.432 4.95439 52.3902 4.9536C52.3485 4.95285 52.3069 4.95407 52.2655 4.95725C52.2241 4.96047 52.1828 4.96565 52.1416 4.97281C52.0832 4.98299 52.0258 4.99709 51.9693 5.01512C51.9126 5.03313 51.8576 5.05488 51.8042 5.08038C51.7505 5.10587 51.6988 5.13488 51.649 5.16739C51.5995 5.19991 51.5522 5.23565 51.5071 5.27462C51.4624 5.31357 51.4204 5.35537 51.3812 5.40005C51.342 5.44473 51.3059 5.49186 51.2731 5.54146C51.24 5.59102 51.2106 5.6426 51.1847 5.6962C51.1588 5.74979 51.1366 5.8049 51.118 5.86151C51.0993 5.91812 51.0847 5.97573 51.0742 6.03432C51.0633 6.09292 51.0564 6.152 51.0533 6.21154C51.0505 6.27106 51.0518 6.33052 51.0571 6.3899C51.0621 6.44928 51.0711 6.50803 51.0842 6.56615C51.0972 6.62427 51.1142 6.68125 51.1351 6.73708C51.1559 6.79291 51.1802 6.84709 51.2081 6.89962C51.2361 6.95213 51.2677 7.0025 51.3027 7.05076C51.3375 7.09898 51.3753 7.14464 51.4162 7.18772C51.4571 7.2308 51.5008 7.27092 51.5472 7.30807C51.5936 7.3452 51.6423 7.37903 51.6932 7.40956C51.7441 7.44006 51.7969 7.46698 51.8517 7.49033C51.9062 7.51367 51.962 7.53321 52.019 7.54895C52.0763 7.56469 52.1343 7.57648 52.1929 7.5843C52.2519 7.59216 52.311 7.59599 52.3702 7.59579C52.4295 7.5956 52.4884 7.59139 52.5471 7.58317C52.606 7.57495 52.664 7.56279 52.721 7.54669ZM31.4334 7.52899C31.4731 7.51641 31.5121 7.50198 31.5505 7.48571C31.5888 7.46941 31.6263 7.45133 31.6629 7.43145C31.6996 7.41157 31.7352 7.38999 31.7698 7.3667C31.8044 7.34344 31.8378 7.31857 31.87 7.2921C31.9023 7.26562 31.9332 7.23768 31.9628 7.20827C31.9924 7.17883 32.0206 7.14806 32.0472 7.11597C32.0739 7.08384 32.099 7.05053 32.1226 7.01603C32.1461 6.98154 32.168 6.94597 32.1882 6.90935C32.2083 6.87276 32.2268 6.83528 32.2434 6.79692C32.26 6.75856 32.2749 6.71951 32.2878 6.67975C32.3007 6.63997 32.3118 6.59967 32.3209 6.55885C32.3301 6.51804 32.3372 6.47687 32.3425 6.43535C32.3478 6.39384 32.351 6.35217 32.3523 6.31034C32.3537 6.26852 32.353 6.22672 32.3503 6.18496C32.3477 6.14319 32.3431 6.10164 32.3365 6.06032C32.33 6.019 32.3215 5.97809 32.3111 5.93758C32.3006 5.89707 32.2883 5.85715 32.2741 5.81781C32.2599 5.77848 32.2438 5.73991 32.226 5.70211C32.2081 5.66431 32.1885 5.62744 32.1672 5.59149C32.1459 5.55556 32.1229 5.52073 32.0983 5.48698C32.0737 5.45327 32.0475 5.42078 32.0198 5.38952C31.9921 5.3583 31.963 5.32845 31.9325 5.29999C31.9019 5.27153 31.8701 5.2446 31.8371 5.21918C31.804 5.19377 31.7698 5.16999 31.7345 5.14785C31.6992 5.12568 31.6629 5.10526 31.6256 5.08658C31.5884 5.06788 31.5504 5.05101 31.5116 5.03597C31.4727 5.0209 31.4332 5.00773 31.3932 4.99646C31.3531 4.98517 31.3125 4.97582 31.2716 4.96841C31.2306 4.961 31.1894 4.95555 31.1479 4.95205C31.1064 4.94859 31.0649 4.9471 31.0232 4.94761C30.9816 4.94808 30.9401 4.95056 30.8987 4.95503C30.8573 4.95948 30.8162 4.96589 30.7755 4.97428C30.7173 4.98622 30.6603 5.00204 30.6043 5.02175C30.5483 5.04149 30.4939 5.06492 30.4411 5.09203C30.3882 5.11915 30.3375 5.14972 30.2887 5.18375C30.24 5.21777 30.1938 5.25495 30.1501 5.2953C30.1064 5.33561 30.0656 5.37871 30.0277 5.42458C29.9898 5.47046 29.9551 5.5187 29.9237 5.5693C29.8923 5.61988 29.8645 5.67236 29.8401 5.72677C29.8158 5.78115 29.7952 5.83693 29.7784 5.89413C29.7616 5.95133 29.7487 6.0094 29.7397 6.06833C29.7307 6.1273 29.7257 6.18658 29.7247 6.24618C29.7236 6.30582 29.7266 6.36525 29.7336 6.42449C29.7406 6.48371 29.7516 6.54218 29.7664 6.59991C29.7813 6.65764 29.7999 6.7141 29.8224 6.76929C29.8449 6.82447 29.871 6.8779 29.9006 6.92956C29.9303 6.9812 29.9633 7.03059 29.9996 7.07772C30.0359 7.12489 30.0753 7.16936 30.1176 7.21116C30.1599 7.25296 30.2048 7.29169 30.2524 7.32736C30.2999 7.36307 30.3496 7.39537 30.4015 7.42428C30.4534 7.45318 30.5069 7.47846 30.5622 7.5001C30.6175 7.52171 30.674 7.53947 30.7317 7.5534C30.7894 7.56735 30.8477 7.57731 30.9067 7.5833C30.9657 7.58928 31.0249 7.59124 31.0842 7.58917C31.1435 7.58713 31.2024 7.58106 31.2609 7.57097C31.3193 7.5609 31.3768 7.54691 31.4334 7.52899Z" fill="black"/>
<path d="M56.2589 10.8477C56.4595 10.869 56.5254 10.8984 56.6902 11.0154C57.0068 12.1856 58.3458 14.0718 58.9924 15.1924C59.9268 16.8126 68.3398 31.0507 68.3844 31.5896C68.3877 31.6303 68.389 31.636 68.3873 31.6818C68.3648 32.275 66.4251 35.6005 65.894 36.1068C65.9103 36.1176 65.9262 36.1281 65.9424 36.1392C66.4851 36.5145 66.8113 37.2439 66.914 37.8796C67.0846 38.9344 66.8439 40.0773 66.2194 40.9462C65.5887 41.8237 64.6047 42.3674 63.5489 42.5314C62.5185 42.6915 61.4848 42.4668 60.6426 41.8396C59.77 41.1902 59.2369 40.232 59.0817 39.1581C58.9812 38.4642 59.0888 37.8246 59.3111 37.1647C60.3506 34.0779 63.1609 35.3702 63.9664 34.2647C64.2864 33.8253 65.4627 31.9289 65.3976 31.4963C64.4428 29.8687 56.822 16.2727 56.2635 15.9838C55.6728 16.771 55.1943 17.7255 54.6921 18.5775C53.3793 20.8043 52.1488 23.074 50.8156 25.2895C51.0546 25.8055 51.3057 26.3289 51.4926 26.8667C51.9948 28.3143 51.3866 29.4211 50.7759 30.702C51.8372 32.5021 52.8804 34.3125 53.9058 36.1333C55.9723 39.5565 57.8382 43.1134 59.9714 46.4917C59.2673 47.5976 58.6604 48.8032 58.0055 49.9435C57.1453 51.4406 55.9977 53.0538 55.4275 54.6717C55.8321 55.2818 56.1792 55.8719 56.3073 56.6045C56.4866 57.6323 56.1483 58.5423 55.5581 59.3735C54.9582 60.2177 54.0501 60.8345 53.0248 60.9998C52.8907 61.0199 52.7561 61.0336 52.621 61.0409C52.4858 61.0481 52.3505 61.0487 52.2151 61.0425C52.0797 61.0367 51.9449 61.0242 51.8109 61.0052C51.6768 60.9859 51.5439 60.9603 51.4121 60.9285C51.2805 60.8963 51.1508 60.858 51.0229 60.8136C50.895 60.7688 50.7694 60.7181 50.6462 60.6613C50.523 60.6046 50.4029 60.542 50.2858 60.4735C50.1687 60.4047 50.0553 60.3306 49.9454 60.2512C49.0969 59.6247 48.5263 58.6094 48.374 57.5669C48.2376 56.6347 48.4883 55.7188 49.046 54.9652C50.0806 53.5663 51.5418 53.305 53.1482 53.0723C53.6751 52.231 54.116 51.3412 54.6241 50.4886C55.2619 49.418 56.0048 48.3487 56.5375 47.2218C56.6677 46.9472 56.8124 46.6394 56.7002 46.3353C56.2922 45.2307 49.0068 32.622 48.6081 32.286C48.0303 31.7994 46.1603 31.9443 44.7933 30.5803C44.1246 29.9128 43.7538 29.1169 43.7525 28.1625C43.7517 27.1285 44.1309 26.0026 44.8717 25.2671C45.8532 24.2927 47.3191 23.9998 48.6493 24.0165C49.177 22.6724 55.3904 11.8496 56.2589 10.8477ZM63.2631 39.9254C63.321 39.9124 63.3776 39.8955 63.4329 39.8747C63.4885 39.854 63.5425 39.8296 63.5948 39.8016C63.647 39.7736 63.6972 39.7422 63.7453 39.7074C63.7932 39.6726 63.8386 39.6348 63.8818 39.5938C63.9249 39.5529 63.9649 39.5092 64.0019 39.4629C64.0392 39.4165 64.0731 39.3679 64.1037 39.317C64.1343 39.266 64.1614 39.2133 64.185 39.1587C64.2086 39.1041 64.2285 39.0481 64.2447 38.9908C64.2608 38.9335 64.273 38.8754 64.2814 38.8165C64.2897 38.7576 64.2942 38.6983 64.2947 38.6388C64.295 38.5793 64.2914 38.52 64.2839 38.4609C64.2766 38.4018 64.2654 38.3436 64.2501 38.286C64.2348 38.2285 64.2157 38.1723 64.1929 38.1173C64.1701 38.0624 64.1437 38.0092 64.1137 37.9578C64.0839 37.9064 64.0508 37.8573 64.0144 37.8104C63.9777 37.7635 63.9382 37.7192 63.8959 37.6777C63.8537 37.6361 63.8086 37.5976 63.7608 37.5621C63.7132 37.5266 63.6636 37.4944 63.6119 37.4657C63.5599 37.4369 63.5063 37.4117 63.4513 37.3902C63.3959 37.3687 63.3395 37.3509 63.2819 37.337C63.2243 37.3231 63.1661 37.3131 63.1071 37.3071C63.0482 37.301 62.9891 37.299 62.9298 37.301C62.8706 37.3029 62.8118 37.3088 62.7534 37.3187C62.695 37.3286 62.6375 37.3424 62.5811 37.36C62.5408 37.3726 62.5011 37.3871 62.4622 37.4035C62.4233 37.4199 62.3853 37.4381 62.3483 37.4581C62.3111 37.4782 62.2749 37.5 62.2399 37.5235C62.2046 37.547 62.1706 37.5722 62.1381 37.5989C62.1053 37.6258 62.0739 37.6541 62.0438 37.6839C62.0138 37.7137 61.9853 37.7449 61.9583 37.7774C61.9313 37.81 61.9059 37.8437 61.882 37.8787C61.858 37.9138 61.8359 37.9498 61.8156 37.987C61.7953 38.0241 61.7767 38.0621 61.7597 38.101C61.7431 38.14 61.7282 38.1796 61.7151 38.22C61.7023 38.2603 61.6913 38.3012 61.6822 38.3426C61.673 38.384 61.6659 38.4258 61.6609 38.4679C61.6559 38.51 61.6528 38.5523 61.6517 38.5947C61.6506 38.637 61.6514 38.6794 61.6542 38.7217C61.6573 38.764 61.6623 38.8061 61.6692 38.8479C61.6762 38.8898 61.6851 38.9312 61.6959 38.9722C61.7068 39.0132 61.7196 39.0535 61.7343 39.0932C61.749 39.133 61.7657 39.1719 61.7844 39.2101C61.8027 39.2482 61.8229 39.2854 61.8448 39.3216C61.8668 39.3578 61.8904 39.3929 61.9158 39.4268C61.9411 39.4607 61.9679 39.4933 61.9963 39.5247C62.0249 39.556 62.0548 39.5859 62.0859 39.6144C62.1174 39.6428 62.1499 39.6697 62.1836 39.695C62.2175 39.7204 62.2525 39.744 62.2887 39.766C62.3248 39.7879 62.3618 39.8081 62.3996 39.8265C62.4377 39.8449 62.4767 39.8614 62.5164 39.876C62.5559 39.8907 62.5961 39.9034 62.637 39.9142C62.6776 39.925 62.7188 39.9338 62.7605 39.9406C62.8022 39.9474 62.844 39.9522 62.886 39.955C62.9283 39.9578 62.9704 39.9586 63.0124 39.9573C63.0547 39.956 63.0967 39.9527 63.1384 39.9474C63.1804 39.9421 63.222 39.9348 63.2631 39.9254ZM52.3094 55.793C51.8267 55.9692 51.3896 56.0832 51.1535 56.5873C51.0137 56.8859 50.9474 57.2457 51.0654 57.5623C51.1843 57.881 51.4938 58.1884 51.8059 58.3268C51.9673 58.3985 52.1575 58.4551 52.3311 58.4798C52.822 58.3733 53.1745 58.2849 53.4615 57.8278C53.6542 57.5208 53.7189 57.1148 53.6325 56.7622C53.5433 56.3978 53.2742 56.1466 52.9614 55.9646C52.7415 55.8371 52.5688 55.7754 52.3094 55.793ZM48.2756 29.3539C48.6715 28.9988 49.0089 28.4307 49.2613 27.9616C48.8062 27.354 48.4437 26.8515 47.6536 26.7311C47.5539 26.7159 47.4546 26.7114 47.3541 26.7109C46.9361 26.9984 46.4952 27.3202 46.3997 27.8584C46.3863 27.9297 46.3802 28.0015 46.3813 28.074C46.3825 28.1465 46.3908 28.2181 46.4064 28.2888C46.4219 28.3596 46.4443 28.4281 46.4735 28.4944C46.5027 28.5606 46.5383 28.6232 46.5803 28.6822C46.7856 28.9703 47.2248 29.302 47.5835 29.3517C47.8046 29.3824 48.0524 29.3624 48.2756 29.3539Z" fill="black"/>
<path d="M8.03127 27.7109C8.73462 27.6025 9.60111 27.8431 10.2211 28.1692C11.15 28.6577 11.8212 29.5399 12.1278 30.5398C12.5566 31.9386 12.0725 33.0715 11.4329 34.2906C12.2405 36.1843 14.1078 39.0507 15.1975 40.9193C17.0633 41.2215 20.5745 41.0156 22.5471 41.013C25.6671 41.0089 28.878 41.1843 31.989 40.9784C32.8764 39.3353 33.6961 38.8009 35.3653 38.0916C36.4492 38.2308 37.425 38.4496 38.3196 39.1225C38.4188 39.1963 38.514 39.2749 38.6052 39.3583C38.6965 39.4418 38.7833 39.5297 38.8658 39.6219C38.9482 39.7142 39.0258 39.8104 39.0986 39.9105C39.1713 40.0106 39.2389 40.1142 39.3013 40.2212C39.3636 40.3282 39.4205 40.438 39.4718 40.5508C39.5231 40.6636 39.5687 40.7786 39.6084 40.896C39.6482 41.0134 39.682 41.1325 39.7098 41.2534C39.7376 41.3742 39.7592 41.4961 39.7748 41.6191C39.9378 42.8275 39.5671 43.8041 38.8468 44.7548C40.379 47.4105 41.8962 50.0746 43.3983 52.7473C44.3794 54.4717 45.4748 56.1952 46.3033 57.9985L46.2136 58.0819L46.375 58.2224L46.2541 58.3784C45.7531 58.3952 45.2508 58.3029 44.7432 58.3105C41.1582 58.3629 37.5731 58.3201 33.9875 58.318C30.1228 58.3155 26.1832 58.5185 22.3305 58.2908C21.3755 56.9715 20.5845 55.4597 19.7501 54.0565C19.4058 54.0846 19.0572 54.1148 18.7116 54.1027C17.4948 54.0607 16.7364 53.5126 15.9305 52.65C15.5496 52.1392 15.2589 51.5681 15.1374 50.9378C14.9286 49.855 15.1715 48.7618 15.7926 47.8534C16.3963 46.9707 17.3493 46.4289 18.3862 46.2356C18.512 46.2115 18.6388 46.194 18.7665 46.1831C18.8941 46.172 19.022 46.1673 19.1501 46.1693C19.2782 46.1713 19.4059 46.1796 19.5331 46.1945C19.6604 46.2093 19.7866 46.2307 19.9117 46.2586C20.0368 46.2863 20.1602 46.3203 20.2818 46.3605C20.4035 46.4008 20.5229 46.4471 20.6399 46.4993C20.757 46.5519 20.8711 46.6102 20.9822 46.6742C21.0934 46.7382 21.2011 46.8077 21.3053 46.8826C21.4128 46.9589 21.5163 47.0404 21.6158 47.1271C21.7153 47.2138 21.8103 47.3052 21.9008 47.4014C21.9913 47.4973 22.0768 47.5975 22.1574 47.702C22.238 47.8069 22.3133 47.9154 22.3832 48.0275C22.4531 48.1396 22.5173 48.2549 22.5759 48.3734C22.6345 48.492 22.687 48.613 22.7337 48.7366C22.7803 48.8604 22.8207 48.9862 22.8549 49.114C22.8891 49.2418 22.917 49.3709 22.9385 49.5015C23.1461 50.7499 22.7668 51.8 22.0562 52.8094C22.5885 53.5655 22.9328 54.4432 23.4436 55.2161C23.537 55.3574 23.7779 55.7029 23.9349 55.7658C24.3539 55.934 28.2108 55.5918 28.9544 55.578C32.2346 55.4988 35.5139 55.523 38.7926 55.6505C39.7121 55.6929 40.5615 55.6274 41.4698 55.7784C41.7222 55.8199 41.8344 55.7881 42.0313 55.6442C41.8357 55.0093 41.3246 54.4163 40.998 53.8355C39.8184 51.708 38.6213 49.5905 37.4067 47.4831C36.4444 45.8363 36.2054 46.3639 34.6636 45.9454C33.3399 45.586 32.6603 44.5225 32.0273 43.399C30.9414 43.6641 29.5501 43.5152 28.4315 43.5177L21.7387 43.5374C20.1289 43.5531 18.5192 43.5778 16.9097 43.6117C16.0714 43.6297 15.1631 43.7207 14.3299 43.6561C14.0651 43.6356 13.7748 43.4355 13.5482 43.3018C12.2254 40.9029 10.3046 38.1242 9.24157 35.736C8.11703 35.724 7.01098 35.4996 6.08275 34.8287C5.23996 34.2196 4.64686 33.3099 4.48388 32.2746C4.32687 31.277 4.51751 30.225 5.11819 29.4039C5.81274 28.4545 6.8893 27.8879 8.03127 27.7109ZM8.81671 32.937C9.20373 32.7119 9.5115 32.5252 9.6298 32.0568C9.72199 31.6918 9.67302 31.2915 9.48101 30.9665C9.43204 30.8844 9.37554 30.8078 9.31152 30.737C9.24751 30.666 9.17722 30.6021 9.10066 30.5452C9.02407 30.4882 8.94269 30.4394 8.8565 30.3986C8.77032 30.3579 8.68101 30.326 8.58857 30.3029C8.38905 30.2547 8.20009 30.2521 7.99802 30.2799C7.49716 30.6618 7.16194 30.9298 7.07722 31.5913C7.0328 31.9381 7.06709 32.3177 7.29142 32.5988C7.48811 32.8453 7.77677 32.9943 8.08846 33.0271C8.3372 33.0533 8.5771 32.9982 8.81671 32.937ZM36.1356 43.5521C36.1938 43.5395 36.2509 43.523 36.3069 43.5026C36.3629 43.4822 36.4173 43.4582 36.4701 43.4305C36.5229 43.4025 36.5736 43.3714 36.6222 43.337C36.6708 43.3023 36.717 43.2646 36.7606 43.2238C36.8042 43.1832 36.8449 43.1397 36.8827 43.0933C36.9205 43.0472 36.9551 42.9987 36.9864 42.9478C37.0177 42.8967 37.0455 42.8438 37.0698 42.7893C37.0941 42.7345 37.1147 42.6785 37.1315 42.6211C37.1483 42.5638 37.1612 42.5055 37.1703 42.4463C37.1793 42.387 37.1844 42.3275 37.1855 42.2676C37.1866 42.2078 37.1837 42.1482 37.1769 42.089C37.1701 42.0294 37.1593 41.9707 37.1447 41.9127C37.13 41.8547 37.1115 41.7979 37.0893 41.7424C37.0671 41.6869 37.0412 41.6331 37.0118 41.5811C36.9824 41.529 36.9497 41.4792 36.9136 41.4316C36.8776 41.3839 36.8386 41.3389 36.7965 41.2966C36.7545 41.2542 36.7098 41.2148 36.6625 41.1785C36.6152 41.1421 36.5657 41.1091 36.5139 41.0794C36.4622 41.0498 36.4088 41.0237 36.3536 41.0012C36.2985 40.9787 36.242 40.9601 36.1843 40.9452C36.1267 40.9303 36.0683 40.9194 36.0091 40.9124C35.95 40.9054 35.8907 40.9024 35.8311 40.9034C35.7716 40.9044 35.7124 40.9094 35.6535 40.9183C35.5947 40.9273 35.5366 40.9402 35.4795 40.957C35.4386 40.969 35.3983 40.983 35.3587 40.9989C35.3191 41.0148 35.2803 41.0326 35.2424 41.0522C35.2045 41.0719 35.1676 41.0934 35.1317 41.1166C35.0958 41.1398 35.0612 41.1647 35.0277 41.1913C34.9942 41.2179 34.9621 41.246 34.9313 41.2756C34.9005 41.3053 34.8712 41.3364 34.8433 41.3689C34.8155 41.4014 34.7893 41.4352 34.7647 41.4702C34.7401 41.5053 34.7172 41.5414 34.696 41.5786C34.6749 41.6159 34.6556 41.654 34.638 41.6931C34.6205 41.7323 34.6049 41.7721 34.5912 41.8127C34.5776 41.8534 34.5658 41.8946 34.5561 41.9363C34.5463 41.978 34.5386 42.0201 34.5328 42.0626C34.5271 42.1051 34.5234 42.1478 34.5217 42.1909C34.5201 42.2337 34.5205 42.2764 34.5229 42.3192C34.5253 42.362 34.5298 42.4046 34.5363 42.4471C34.5428 42.4893 34.5513 42.5313 34.5618 42.5729C34.5723 42.6146 34.5848 42.6555 34.5992 42.6958C34.6136 42.736 34.6299 42.7756 34.6481 42.8145C34.6664 42.8533 34.6864 42.8912 34.7082 42.9281C34.73 42.9647 34.7535 43.0004 34.7787 43.035C34.804 43.0697 34.8308 43.103 34.8592 43.1349C34.8876 43.167 34.9175 43.1976 34.9488 43.2267C34.9801 43.2558 35.0127 43.2833 35.0467 43.3093C35.0806 43.3353 35.1158 43.3595 35.152 43.3818C35.1883 43.4045 35.2256 43.4253 35.2638 43.4443C35.3021 43.4633 35.3411 43.4804 35.3811 43.4955C35.4209 43.5109 35.4615 43.5242 35.5026 43.5353C35.5438 43.5465 35.5854 43.5557 35.6274 43.563C35.6694 43.5703 35.7117 43.5756 35.7543 43.5789C35.7968 43.582 35.8394 43.5831 35.882 43.5823C35.9247 43.5812 35.9672 43.5782 36.0096 43.5735C36.0519 43.5685 36.0939 43.5613 36.1356 43.5521ZM19.4646 51.454C19.5004 51.4414 19.5357 51.4275 19.5703 51.4121C19.6049 51.3964 19.6388 51.3794 19.6719 51.3609C19.7051 51.3425 19.7374 51.3226 19.7689 51.3014C19.8004 51.2801 19.8309 51.2576 19.8605 51.2339C19.89 51.2101 19.9185 51.1851 19.9459 51.1588C19.9733 51.1325 19.9996 51.105 20.0247 51.0762C20.0497 51.0477 20.0735 51.018 20.0961 50.9873C20.1186 50.9568 20.1399 50.9254 20.1597 50.8929C20.1796 50.8605 20.198 50.8272 20.215 50.7931C20.232 50.759 20.2476 50.7243 20.2616 50.6891C20.2757 50.6536 20.2882 50.6177 20.2992 50.5813C20.3102 50.5447 20.3196 50.5078 20.3275 50.4706C20.3353 50.4332 20.3416 50.3956 20.3462 50.3578C20.3509 50.3201 20.3539 50.2822 20.3553 50.2442C20.3567 50.2059 20.3565 50.1677 20.3546 50.1297C20.3528 50.0917 20.3493 50.0538 20.3443 50.016C20.3377 49.9674 20.3285 49.9192 20.3166 49.8714C20.3048 49.8236 20.2904 49.7767 20.2733 49.7309C20.2563 49.6848 20.2369 49.6396 20.2149 49.5954C20.1929 49.5515 20.1686 49.509 20.1419 49.4679C20.1153 49.4266 20.0864 49.3869 20.0554 49.3489C20.0244 49.3108 19.9914 49.2748 19.9564 49.2407C19.9214 49.2063 19.8846 49.1738 19.8461 49.1434C19.8075 49.1132 19.7674 49.0852 19.7258 49.0595C19.6841 49.0338 19.6412 49.0104 19.597 48.9895C19.5528 48.9682 19.5075 48.9496 19.4613 48.9337C19.415 48.9178 19.368 48.9043 19.3203 48.8934C19.2726 48.8828 19.2244 48.8748 19.1758 48.8695C19.1272 48.8639 19.0784 48.8611 19.0295 48.8611C18.9806 48.8611 18.9318 48.8639 18.8832 48.8695C18.8346 48.8748 18.7864 48.883 18.7388 48.8939C18.691 48.9048 18.644 48.9182 18.5978 48.9341C18.5567 48.9484 18.5164 48.9646 18.4769 48.9828C18.4374 49.0009 18.3989 49.0211 18.3614 49.0431C18.3238 49.0652 18.2875 49.0891 18.2523 49.1149C18.2171 49.1403 18.1832 49.1676 18.1507 49.1966C18.1181 49.2257 18.0871 49.2562 18.0576 49.288C18.028 49.3202 18.0001 49.3536 17.9738 49.3883C17.9476 49.4232 17.923 49.4593 17.9003 49.4965C17.8775 49.5336 17.8566 49.572 17.8376 49.6114C17.8186 49.6505 17.8016 49.6906 17.7865 49.7317C17.7714 49.7725 17.7583 49.8141 17.7473 49.8563C17.7363 49.8988 17.7273 49.9415 17.7205 49.9846C17.7137 50.0277 17.709 50.071 17.7064 50.1146C17.7038 50.1582 17.7033 50.2018 17.705 50.2454C17.7067 50.2893 17.7105 50.3328 17.7164 50.3759C17.7223 50.4192 17.7303 50.4621 17.7404 50.5046C17.7506 50.5471 17.7627 50.589 17.7769 50.6304C17.7912 50.6718 17.8073 50.7123 17.8255 50.752C17.8437 50.7917 17.8637 50.8303 17.8857 50.8678C17.9076 50.9055 17.9314 50.9421 17.9569 50.9776C17.9824 51.0129 18.0096 51.0468 18.0384 51.0795C18.0673 51.1122 18.0976 51.1434 18.1295 51.173C18.1614 51.2027 18.1947 51.2306 18.2293 51.2569C18.2639 51.2835 18.2998 51.3081 18.3368 51.3307C18.3739 51.3537 18.4119 51.3746 18.451 51.3936C18.4901 51.4129 18.53 51.4301 18.5708 51.4452C18.6116 51.4603 18.6529 51.4733 18.695 51.4842C18.737 51.4954 18.7795 51.5043 18.8224 51.511C18.8653 51.518 18.9085 51.5228 18.9519 51.5253C18.9952 51.5278 19.0386 51.5282 19.0821 51.5266C19.1255 51.5249 19.1687 51.5211 19.2118 51.5152C19.2548 51.5091 19.2974 51.501 19.3397 51.4909C19.3819 51.4806 19.4236 51.4683 19.4646 51.454Z" fill="black"/>
</svg>
