<svg width="107" height="30" viewBox="0 0 107 30" fill="none" xmlns="http://www.w3.org/2000/svg">
<g clip-path="url(#clip0_10_923)">
<path d="M92.2686 11.585V11.4414H92.2829C92.6279 11.4414 92.9058 11.3361 93.1166 11.1255C93.3273 10.9149 93.4328 10.6373 93.4328 10.2927V5.58297C93.4328 5.2192 93.356 4.93682 93.2028 4.73579C93.0591 4.53476 92.7477 4.43425 92.2686 4.43425V4.29066H93.6915C94.0844 4.29066 94.3862 4.27153 94.597 4.23323C94.8174 4.19494 94.9802 4.14707 95.0856 4.08964C95.1911 4.02264 95.2676 3.95561 95.3156 3.88861H95.4593L95.4737 5.75528C95.7229 5.25751 96.1012 4.85546 96.6092 4.54912C97.1171 4.24282 97.6535 4.08964 98.2189 4.08964C98.7651 4.08964 99.2202 4.24282 99.5844 4.54912C99.9485 4.85546 100.183 5.26707 100.289 5.784C100.557 5.26707 100.94 4.85546 101.438 4.54912C101.946 4.24282 102.492 4.08964 103.077 4.08964C103.719 4.08964 104.231 4.30023 104.615 4.72143C105.008 5.14264 105.204 5.69784 105.204 6.38707V10.2927C105.204 10.6373 105.31 10.9149 105.52 11.1255C105.731 11.3361 106.009 11.4414 106.354 11.4414H106.368V11.585H101.985V11.4414H101.999C102.344 11.4414 102.622 11.3361 102.833 11.1255C103.043 10.9149 103.149 10.6373 103.149 10.2927V6.24348C103.149 5.76487 103.053 5.38194 102.861 5.09476C102.67 4.80759 102.421 4.664 102.114 4.664C101.817 4.664 101.505 4.79802 101.18 5.06605C100.854 5.32451 100.571 5.66435 100.332 6.08553C100.341 6.10469 100.346 6.12861 100.346 6.15733C100.346 6.18605 100.346 6.21 100.346 6.22912V10.2927C100.346 10.6373 100.452 10.9149 100.662 11.1255C100.873 11.3361 101.151 11.4414 101.496 11.4414H101.51V11.585H97.1266V11.4414H97.141C97.4859 11.4414 97.7639 11.3361 97.9746 11.1255C98.1853 10.9149 98.2908 10.6373 98.2908 10.2927V6.24348C98.2908 5.76487 98.1951 5.38194 98.0033 5.09476C97.8214 4.80759 97.577 4.664 97.2703 4.664C96.9734 4.664 96.6618 4.79323 96.3361 5.05169C96.0199 5.30059 95.7419 5.64041 95.5025 6.07118V10.2927C95.5025 10.6373 95.6079 10.9149 95.8187 11.1255C96.0294 11.3361 96.3073 11.4414 96.6523 11.4414H96.6667V11.585H92.2686Z" fill="#1D3AA7"/>
<path d="M89.2459 11.987L89.2315 10.1347C88.9823 10.6229 88.6037 11.0202 88.096 11.3265C87.5881 11.6329 87.0514 11.786 86.4863 11.786C85.8441 11.786 85.3267 11.5754 84.934 11.1542C84.5506 10.733 84.3591 10.1778 84.3591 9.48858V5.58294C84.3591 5.21917 84.2872 4.93679 84.1435 4.73576C83.9998 4.53474 83.6836 4.43423 83.1949 4.43423V4.29064H84.6465C85.1352 4.29064 85.5089 4.23799 85.7676 4.13269C86.0071 4.02738 86.1747 3.89815 86.2707 3.745H86.4144V9.63217C86.4144 10.1108 86.5101 10.4937 86.7019 10.7809C86.8933 11.0681 87.1425 11.2117 87.4493 11.2117C87.7462 11.2117 88.0529 11.0872 88.3691 10.8383C88.6853 10.5799 88.963 10.2353 89.2027 9.80448V5.58294C89.2027 5.23833 89.1165 4.96074 88.944 4.75012C88.7716 4.53953 88.4744 4.43423 88.0529 4.43423V4.29064H89.5046C89.9933 4.29064 90.367 4.23799 90.6257 4.13269C90.8746 4.02738 91.0471 3.89815 91.1431 3.745H91.2868L91.2724 10.2927C91.2724 10.6373 91.3777 10.9197 91.5886 11.1399C91.7994 11.3505 92.0773 11.4558 92.4223 11.4558V11.585H90.9994C90.7501 11.585 90.5297 11.5898 90.3382 11.5994C90.1465 11.6185 89.9884 11.6377 89.8639 11.6568C89.6052 11.7142 89.423 11.8243 89.3177 11.987H89.2459Z" fill="#1D3AA7"/>
<path d="M80.3344 11.7861C80.0852 11.7861 79.8984 11.7765 79.7739 11.7574C79.6494 11.7382 79.5296 11.7143 79.4146 11.6856C79.3091 11.6568 79.1654 11.6329 78.9834 11.6138C78.8014 11.5946 78.5235 11.585 78.1498 11.585L77.8048 8.88556H77.9917C78.1449 9.7854 78.4323 10.465 78.854 10.9245C79.2757 11.3745 79.7357 11.5994 80.2338 11.5994C80.7225 11.5994 81.0913 11.4989 81.3405 11.2979C81.5993 11.0968 81.7286 10.824 81.7286 10.4794C81.7286 10.2593 81.6711 10.0678 81.5561 9.90505C81.4506 9.73274 81.2638 9.56043 80.9956 9.38812C80.7274 9.20625 80.3632 8.99087 79.9032 8.74197L79.4864 8.51223C78.9595 8.21548 78.5666 7.87087 78.3079 7.47838C78.0587 7.07633 77.9342 6.64556 77.9342 6.18607C77.9342 5.53515 78.169 5.02299 78.6384 4.64966C79.1176 4.27633 79.7546 4.08966 80.55 4.08966C80.7513 4.08966 80.9142 4.09922 81.0387 4.11838C81.1632 4.13753 81.283 4.16146 81.398 4.19017C81.513 4.21889 81.6567 4.24281 81.8292 4.26197C82.0017 4.28112 82.2317 4.29069 82.5191 4.29069L82.7203 6.60248H82.5479C82.4904 6.15258 82.361 5.7553 82.1598 5.41069C81.9681 5.05651 81.7381 4.78369 81.4699 4.59222C81.2017 4.3912 80.9286 4.29069 80.6506 4.29069C80.2864 4.29069 79.9944 4.3864 79.7739 4.57787C79.5632 4.76933 79.4577 5.03735 79.4577 5.38197C79.4577 5.64043 79.5391 5.87974 79.702 6.09992C79.8745 6.31053 80.2002 6.54025 80.6794 6.78915L81.1106 7.00453C81.7812 7.34915 82.2699 7.70812 82.5766 8.08146C82.8833 8.45479 83.0365 8.93343 83.0365 9.51735C83.0365 11.0107 82.1359 11.7669 80.3344 11.7861Z" fill="#1D3AA7"/>
<path d="M68.5538 14.6004V14.4568H68.5682C68.9132 14.4568 69.1911 14.3515 69.4018 14.1409C69.6128 13.9303 69.718 13.6527 69.718 13.3081V5.58294C69.7085 5.16176 69.6174 4.86499 69.4449 4.69269C69.2725 4.52038 68.9755 4.43423 68.5538 4.43423V4.29064H69.9767C70.5422 4.29064 70.9302 4.23799 71.1409 4.13269C71.3519 4.02738 71.5051 3.89815 71.6009 3.745H71.7446L71.759 5.58294C71.9794 5.15217 72.3149 4.7932 72.7651 4.50602C73.2155 4.21884 73.6898 4.07525 74.188 4.07525C74.7247 4.07525 75.199 4.23799 75.6109 4.56346C76.0231 4.88892 76.3439 5.33405 76.5739 5.89884C76.8136 6.45405 76.9332 7.09543 76.9332 7.82294C76.9332 8.62705 76.7895 9.32587 76.502 9.91935C76.2146 10.5129 75.8075 10.9724 75.2803 11.2978C74.7629 11.6233 74.1449 11.786 73.4262 11.786C73.0335 11.786 72.7125 11.7238 72.4633 11.5994C72.2143 11.4845 71.9889 11.2883 71.7877 11.0106V13.3081C71.7877 13.6527 71.8932 13.9303 72.1039 14.1409C72.3149 14.3515 72.5926 14.4568 72.9376 14.4568H72.9519V14.6004H68.5538ZM73.1244 11.5419C73.6418 11.5419 74.0348 11.2213 74.303 10.5799C74.5617 9.92894 74.6911 8.99561 74.6911 7.77987C74.6911 5.69305 74.2696 4.64961 73.4262 4.64961C73.1005 4.64961 72.7795 4.77884 72.4633 5.0373C72.1471 5.29576 71.922 5.61166 71.7877 5.98499V9.33064C71.7877 10.0199 71.9076 10.5607 72.1471 10.9532C72.3868 11.3457 72.7125 11.5419 73.1244 11.5419Z" fill="#1D3AA7"/>
<path d="M64.6318 11.585V11.4415H64.6461C64.9911 11.4415 65.2691 11.3362 65.4798 11.1256C65.6907 10.915 65.796 10.6374 65.796 10.2927V5.583C65.796 5.21923 65.7195 4.93684 65.566 4.73582C65.4223 4.53479 65.111 4.43428 64.6318 4.43428V4.29069H66.0978C66.5865 4.29069 66.9602 4.23805 67.2189 4.13274C67.4586 4.02743 67.6262 3.8982 67.7219 3.74505H67.8657V10.2927C67.8657 10.6374 67.9712 10.915 68.1819 11.1256C68.3929 11.3362 68.6706 11.4415 69.0155 11.4415H69.0299V11.585H64.6318ZM66.8165 2.84043C66.4715 2.84043 66.184 2.73036 65.9541 2.51018C65.7339 2.28044 65.6235 1.99326 65.6235 1.64864C65.6235 1.30402 65.7339 1.02163 65.9541 0.801463C66.184 0.57172 66.4715 0.456848 66.8165 0.456848C67.1519 0.456848 67.4299 0.57172 67.6501 0.801463C67.88 1.0312 67.995 1.3136 67.995 1.64864C67.995 1.98368 67.88 2.26608 67.6501 2.49582C67.4299 2.72556 67.1519 2.84043 66.8165 2.84043Z" fill="#1D3AA7"/>
<path d="M60.5081 11.7861C59.7225 11.7861 59.0326 11.6281 58.4384 11.3122C57.854 10.9963 57.3989 10.5512 57.073 9.97684C56.7473 9.40248 56.5843 8.72284 56.5843 7.93787C56.5843 7.15292 56.7473 6.47325 57.073 5.89889C57.3989 5.32453 57.854 4.8794 58.4384 4.56351C59.0326 4.24761 59.7225 4.08966 60.5081 4.08966C61.294 4.08966 61.979 4.24761 62.5634 4.56351C63.1481 4.8794 63.6031 5.32453 63.9288 5.89889C64.2548 6.47325 64.4175 7.15292 64.4175 7.93787C64.4175 8.72284 64.2548 9.40248 63.9288 9.97684C63.6031 10.5512 63.1481 10.9963 62.5634 11.3122C61.979 11.6281 61.294 11.7861 60.5081 11.7861ZM60.4937 11.5994C60.8292 11.5994 61.1166 11.4319 61.3561 11.0968C61.5958 10.7618 61.7827 10.3167 61.9166 9.76146C62.0509 9.19669 62.1178 8.58402 62.1178 7.92351C62.1178 7.20556 62.046 6.57376 61.9023 6.02812C61.7683 5.47292 61.5766 5.04215 61.3273 4.73581C61.0879 4.41992 60.8148 4.26197 60.5081 4.26197C60.1824 4.26197 59.8949 4.42948 59.6457 4.76453C59.4063 5.09958 59.2194 5.54471 59.0852 6.09992C58.9512 6.65515 58.884 7.26299 58.884 7.92351C58.884 8.65102 58.9558 9.2924 59.0995 9.84761C59.2433 10.4028 59.435 10.8336 59.6745 11.1399C59.9237 11.4463 60.1968 11.5994 60.4937 11.5994Z" fill="#1D3AA7"/>
<path d="M52.729 14.8015C51.7134 14.8015 50.8893 14.6627 50.2569 14.385C49.634 14.117 49.3226 13.7628 49.3226 13.3225C49.3226 12.9875 49.4807 12.6859 49.7969 12.4179C50.1226 12.1594 50.5636 11.9584 51.1192 11.8148C50.2186 11.585 49.7682 11.1782 49.7682 10.5943C49.7682 10.2784 49.8927 9.98643 50.1419 9.71838C50.3911 9.44079 50.7407 9.22061 51.1911 9.05787C50.7119 8.84728 50.3382 8.54094 50.07 8.13889C49.8113 7.73684 49.682 7.26299 49.682 6.71735C49.682 5.92281 49.955 5.28625 50.5012 4.80761C51.0569 4.32899 51.7996 4.08966 52.729 4.08966C53.1697 4.08966 53.6009 4.15666 54.0226 4.29069H56.6672L56.5234 4.54915H54.5687C54.9519 4.76933 55.2443 5.06607 55.4455 5.4394C55.6562 5.80317 55.7617 6.22915 55.7617 6.71735C55.7617 7.51189 55.4886 8.15325 54.9424 8.64146C54.4058 9.1201 53.6681 9.3594 52.729 9.3594C52.2116 9.3594 51.7565 9.28281 51.3636 9.12966C51.0569 9.2924 50.9036 9.48384 50.9036 9.70402C50.9036 9.89548 51.0379 10.0247 51.3061 10.0917C51.4403 10.13 51.6318 10.1635 51.881 10.1922C52.1302 10.2209 52.4321 10.2401 52.7865 10.2497L53.2895 10.2784C54.3914 10.3167 55.2394 10.5273 55.8335 10.9102C56.4372 11.2931 56.739 11.8148 56.739 12.4753C56.739 13.2124 56.3846 13.782 55.6754 14.184C54.9663 14.5957 53.9843 14.8015 52.729 14.8015ZM52.7146 9.1871C53.0116 9.1871 53.2559 8.96215 53.4476 8.51222C53.6201 8.06233 53.7064 7.46402 53.7064 6.71735C53.7064 5.96112 53.6201 5.36281 53.4476 4.92248C53.2657 4.49171 53.026 4.27633 52.729 4.27633C52.4223 4.27633 52.1828 4.49171 52.0104 4.92248C51.8379 5.36281 51.7516 5.96112 51.7516 6.71735C51.7516 7.47358 51.8379 8.07666 52.0104 8.52658C52.1828 8.96694 52.4177 9.1871 52.7146 9.1871ZM52.8871 14.6148C53.3278 14.6148 53.7351 14.5478 54.1088 14.4138C54.4825 14.2893 54.7794 14.1122 54.9999 13.8825C55.2299 13.6527 55.3449 13.3895 55.3449 13.0927C55.3449 12.7673 55.1773 12.5088 54.8418 12.3174C54.4874 12.1355 53.9458 12.0398 53.2177 12.0302L52.7146 12.0015C52.4367 11.9919 52.178 11.9727 51.9385 11.944C51.7085 11.9249 51.5024 11.8962 51.3205 11.8579C51.1192 11.9249 50.9706 12.0589 50.8749 12.2599C50.7792 12.4609 50.7312 12.7003 50.7312 12.9779C50.7312 13.4757 50.918 13.8729 51.2917 14.1697C51.6654 14.4664 52.1972 14.6148 52.8871 14.6148Z" fill="#1D3AA7"/>
<path d="M44.9422 11.7861C44.1566 11.7861 43.4667 11.6281 42.8725 11.3122C42.2881 10.9963 41.8328 10.5512 41.5071 9.97684C41.1814 9.40248 41.0184 8.72284 41.0184 7.93787C41.0184 7.15292 41.1814 6.47325 41.5071 5.89889C41.8328 5.32453 42.2881 4.8794 42.8725 4.56351C43.4667 4.24761 44.1566 4.08966 44.9422 4.08966C45.7279 4.08966 46.4131 4.24761 46.9975 4.56351C47.582 4.8794 48.0373 5.32453 48.363 5.89889C48.6887 6.47325 48.8517 7.15292 48.8517 7.93787C48.8517 8.72284 48.6887 9.40248 48.363 9.97684C48.0373 10.5512 47.582 10.9963 46.9975 11.3122C46.4131 11.6281 45.7279 11.7861 44.9422 11.7861ZM44.9279 11.5994C45.2633 11.5994 45.5508 11.4319 45.7902 11.0968C46.0297 10.7618 46.2165 10.3167 46.3508 9.76146C46.485 9.19669 46.552 8.58402 46.552 7.92351C46.552 7.20556 46.4801 6.57376 46.3364 6.02812C46.2022 5.47292 46.0107 5.04215 45.7615 4.73581C45.522 4.41992 45.2489 4.26197 44.9422 4.26197C44.6165 4.26197 44.3291 4.42948 44.0799 4.76453C43.8404 5.09958 43.6535 5.54471 43.5193 6.09992C43.3851 6.65515 43.3181 7.26299 43.3181 7.92351C43.3181 8.65102 43.39 9.2924 43.5337 9.84761C43.6774 10.4028 43.8691 10.8336 44.1086 11.1399C44.3578 11.4463 44.6309 11.5994 44.9279 11.5994Z" fill="#1D3AA7"/>
<path d="M32.4029 11.585V11.4414H32.4173C32.7622 11.4414 33.0399 11.3505 33.2509 11.1686C33.4616 10.9867 33.5671 10.7235 33.5671 10.3789V2.10811C33.5671 1.76349 33.4616 1.48588 33.2509 1.27528C33.0399 1.06469 32.7622 0.959388 32.4173 0.959388H32.4029V0.815796H36.9878V0.959388H36.9303C36.5854 0.959388 36.3074 1.06469 36.0967 1.27528C35.8857 1.48588 35.7805 1.76349 35.7805 2.10811V10.4363C35.7805 10.7426 35.8524 10.9819 35.9961 11.1543C36.1493 11.317 36.4129 11.3984 36.7866 11.3984H37.0885C37.9411 11.3984 38.6597 11.1351 39.2444 10.6086C39.8288 10.0821 40.1976 9.34026 40.3511 8.38297H40.4948L40.0636 11.585H32.4029Z" fill="#1D3AA7"/>
<path d="M91.9898 29.9298C91.5969 29.9298 91.2186 29.8531 90.8544 29.7L91.4149 28.02C91.6544 28.1157 91.9131 28.1969 92.1911 28.2641C92.4785 28.331 92.766 28.3646 93.0534 28.3646C93.4176 28.3646 93.7577 28.288 94.0739 28.1349C94.3996 27.9913 94.6439 27.7185 94.8069 27.3164L94.965 26.9287L92.1192 20.3379C92.0235 20.1081 91.8987 19.9262 91.7455 19.7922C91.5825 19.6486 91.3623 19.5721 91.0843 19.5625V19.4189H95.2381V19.5625C94.9794 19.5912 94.7782 19.6821 94.6344 19.8353C94.5002 19.9885 94.4332 20.1847 94.4332 20.424C94.4332 20.6346 94.4812 20.85 94.577 21.0702L96.0286 24.4732L97.4803 21.0702C97.576 20.85 97.624 20.6346 97.624 20.424C97.624 20.1847 97.5521 19.9885 97.4084 19.8353C97.2742 19.6821 97.073 19.5912 96.8047 19.5625V19.4189H98.7882V19.5625C98.5677 19.6103 98.3809 19.7539 98.2277 19.9932C98.0744 20.223 97.9115 20.5389 97.739 20.9409L94.8069 27.7472C94.5002 28.4554 94.1026 28.9964 93.614 29.3698C93.1253 29.7431 92.584 29.9298 91.9898 29.9298Z" fill="#7F869E"/>
<path d="M89.2376 26.9144C88.7392 26.9144 88.3321 26.7564 88.0159 26.4405C87.6997 26.1246 87.5416 25.7128 87.5416 25.2056V19.6773H86.3199V19.4907C86.9811 19.4428 87.5704 19.2322 88.0878 18.8589C88.6147 18.4856 89.0459 17.983 89.3814 17.3512H89.6113V19.4189H91.5229L91.3792 19.6773H89.6113V24.8897C89.6113 25.6554 89.87 26.0385 90.3875 26.0385C90.5599 26.0385 90.7563 25.9857 90.9768 25.8805C91.2067 25.7751 91.4223 25.6363 91.6235 25.464V25.6076C91.3073 26.0098 90.9336 26.3303 90.5025 26.5698C90.0713 26.7995 89.6496 26.9144 89.2376 26.9144Z" fill="#7F869E"/>
<path d="M82.1628 26.7133V26.5697H82.1772C82.5222 26.5697 82.8001 26.4644 83.0108 26.2538C83.2216 26.0431 83.327 25.7656 83.327 25.4209V20.7112C83.327 20.3474 83.2503 20.065 83.0971 19.864C82.9533 19.663 82.642 19.5625 82.1628 19.5625V19.4189H83.6289C84.1176 19.4189 84.4912 19.3662 84.75 19.2609C84.9894 19.1556 85.1573 19.0264 85.253 18.8732H85.3967V25.4209C85.3967 25.7656 85.5022 26.0431 85.7129 26.2538C85.9237 26.4644 86.2016 26.5697 86.5466 26.5697H86.5609V26.7133H82.1628ZM84.3475 17.9686C84.0026 17.9686 83.7151 17.8585 83.4851 17.6384C83.2647 17.4086 83.1546 17.1214 83.1546 16.7768C83.1546 16.4322 83.2647 16.1498 83.4851 15.9296C83.7151 15.6999 84.0026 15.585 84.3475 15.585C84.683 15.585 84.9607 15.6999 85.1811 15.9296C85.4111 16.1594 85.5261 16.4418 85.5261 16.7768C85.5261 17.1119 85.4111 17.3943 85.1811 17.624C84.9607 17.8537 84.683 17.9686 84.3475 17.9686Z" fill="#7F869E"/>
<path d="M79.2257 26.9143C78.9765 26.9143 78.7896 26.9046 78.6651 26.8856C78.5404 26.8664 78.4208 26.8426 78.3058 26.8138C78.2003 26.7851 78.0566 26.761 77.8746 26.742C77.6924 26.7228 77.4147 26.7133 77.041 26.7133L76.696 24.0137H76.8829C77.0361 24.9136 77.3236 25.5932 77.7453 26.0528C78.1667 26.5026 78.6266 26.7277 79.1251 26.7277C79.6137 26.7277 79.9826 26.6272 80.2318 26.4261C80.4905 26.2251 80.6198 25.9523 80.6198 25.6076C80.6198 25.3874 80.5623 25.196 80.4474 25.0332C80.3419 24.8609 80.155 24.6886 79.8868 24.5163C79.6184 24.3344 79.2544 24.119 78.7945 23.8701L78.3777 23.6404C77.8505 23.3437 77.4578 22.999 77.1991 22.6066C76.9499 22.2045 76.8254 21.7737 76.8254 21.3142C76.8254 20.6633 77.06 20.1512 77.5297 19.7778C78.0086 19.4045 78.6459 19.2178 79.4413 19.2178C79.6425 19.2178 79.8052 19.2274 79.9299 19.2466C80.0544 19.2657 80.1743 19.2896 80.2893 19.3183C80.4042 19.3471 80.548 19.371 80.7204 19.3901C80.8929 19.4093 81.1229 19.4189 81.4103 19.4189L81.6116 21.7307H81.4391C81.3816 21.2807 81.2522 20.8835 81.051 20.5389C80.8593 20.1847 80.6293 19.9119 80.3611 19.7204C80.0927 19.5194 79.8196 19.4189 79.5419 19.4189C79.1777 19.4189 78.8853 19.5146 78.6651 19.706C78.4542 19.8975 78.3489 20.1655 78.3489 20.5101C78.3489 20.7686 78.4303 21.0079 78.5933 21.2281C78.7657 21.4387 79.0914 21.6684 79.5706 21.9173L80.0018 22.1327C80.6725 22.4773 81.1611 22.8363 81.4678 23.2096C81.7743 23.583 81.9278 24.0616 81.9278 24.6455C81.9278 26.139 81.0269 26.8951 79.2257 26.9143Z" fill="#7F869E"/>
<path d="M69.8671 26.7133V26.5697H69.8815C70.2264 26.5697 70.5042 26.4644 70.7151 26.2538C70.9258 26.0431 71.0313 25.7656 71.0313 25.4209V20.7112C71.0313 20.3474 70.9546 20.065 70.8014 19.864C70.6576 19.663 70.3461 19.5625 69.8671 19.5625V19.4189H71.29C71.7977 19.4189 72.1812 19.371 72.4399 19.2753C72.6986 19.17 72.8806 19.036 72.986 18.8732H73.0579L73.0723 21.2281C73.1968 20.9409 73.3549 20.6394 73.5466 20.3235C73.7478 20.0076 73.9968 19.7443 74.294 19.5337C74.6004 19.3136 74.9646 19.2035 75.3863 19.2035C75.53 19.2035 75.6833 19.2178 75.8463 19.2466C76.009 19.2753 76.1814 19.3279 76.3637 19.4045L75.8031 21.0845C75.4582 20.8931 75.1563 20.7591 74.8976 20.6825C74.6484 20.6059 74.428 20.5676 74.2365 20.5676C73.9105 20.5676 73.6662 20.6681 73.5035 20.8691C73.35 21.0702 73.216 21.3095 73.101 21.5871V25.4209C73.101 25.7656 73.2063 26.0431 73.4172 26.2538C73.6279 26.4644 73.9059 26.5697 74.2509 26.5697H74.2652V26.7133H69.8671Z" fill="#7F869E"/>
<path d="M66.2921 26.8856C65.631 26.8856 65.0417 26.7228 64.5243 26.3974C64.0166 26.0718 63.6188 25.6219 63.3313 25.0476C63.0439 24.4637 62.9001 23.7983 62.9001 23.0517C62.9001 22.2859 63.0583 21.6158 63.3745 21.0414C63.6907 20.4671 64.1218 20.0219 64.668 19.706C65.2239 19.3806 65.8515 19.2178 66.5509 19.2178C67.1355 19.2178 67.653 19.3327 68.1031 19.5625C68.5631 19.7922 68.9273 20.1177 69.1955 20.5389C69.4734 20.9505 69.6315 21.4291 69.6698 21.9748L69.6841 22.1901H64.8549V22.2619C64.8549 23.2766 65.0802 24.0903 65.5304 24.703C65.9808 25.306 66.5845 25.6076 67.3414 25.6076C67.8013 25.6076 68.2374 25.4975 68.6493 25.2773C69.071 25.0476 69.4111 24.7412 69.6698 24.3583L69.7991 24.4014C69.6364 24.8896 69.3823 25.3204 69.0374 25.6938C68.6924 26.0672 68.2854 26.359 67.8157 26.5697C67.3462 26.7802 66.8383 26.8856 66.2921 26.8856ZM64.8692 21.9748H67.7869C67.7869 21.2185 67.6625 20.6059 67.4132 20.1368C67.1738 19.6678 66.8337 19.4332 66.3928 19.4332C65.9713 19.4332 65.6215 19.663 65.3435 20.1224C65.0658 20.5819 64.9077 21.1994 64.8692 21.9748Z" fill="#7F869E"/>
<path d="M59.4011 26.9431L56.5409 20.3379C56.4452 20.1177 56.3158 19.9358 56.1528 19.7922C55.9996 19.6486 55.784 19.5721 55.506 19.5625V19.4189H59.5305V19.5625C59.195 19.6008 58.9748 19.7491 58.8693 20.0076C58.7736 20.2661 58.8069 20.5916 58.9699 20.984L60.4503 24.4445L61.9164 21.0702C62.0121 20.85 62.0601 20.6346 62.0601 20.424C62.0601 20.1847 61.9882 19.9885 61.8445 19.8353C61.7008 19.6821 61.4995 19.5912 61.2408 19.5625V19.4189H63.5117V19.5625C63.2625 19.6199 63.0231 19.7635 62.7931 19.9932C62.5631 20.223 62.357 20.5389 62.1751 20.9409L59.5305 26.9431H59.4011Z" fill="#7F869E"/>
<path d="M51.9434 26.7133V26.5697H51.9577C52.3027 26.5697 52.5806 26.4644 52.7914 26.2538C53.0021 26.0431 53.1076 25.7656 53.1076 25.4209V20.7112C53.1076 20.3474 53.0308 20.065 52.8776 19.864C52.7339 19.663 52.4225 19.5625 51.9434 19.5625V19.4189H53.4094C53.8981 19.4189 54.2718 19.3662 54.5305 19.2609C54.7699 19.1556 54.9378 19.0264 55.0335 18.8732H55.1773V25.4209C55.1773 25.7656 55.2827 26.0431 55.4935 26.2538C55.7042 26.4644 55.9821 26.5697 56.3271 26.5697H56.3415V26.7133H51.9434ZM54.128 17.9686C53.7831 17.9686 53.4956 17.8585 53.2657 17.6384C53.0452 17.4086 52.9351 17.1214 52.9351 16.7768C52.9351 16.4322 53.0452 16.1498 53.2657 15.9296C53.4956 15.6999 53.7831 15.585 54.128 15.585C54.4635 15.585 54.7412 15.6999 54.9617 15.9296C55.1916 16.1594 55.3066 16.4418 55.3066 16.7768C55.3066 17.1119 55.1916 17.3943 54.9617 17.624C54.7412 17.8537 54.4635 17.9686 54.128 17.9686Z" fill="#7F869E"/>
<path d="M42.8618 26.7133V26.5697H42.8761C43.2211 26.5697 43.4988 26.4644 43.7098 26.2538C43.9205 26.0431 44.026 25.7656 44.026 25.4209V20.7112C44.026 20.3474 43.9492 20.065 43.796 19.864C43.6523 19.663 43.3407 19.5625 42.8618 19.5625V19.4189H44.2847C44.7734 19.4189 45.147 19.3662 45.4058 19.2609C45.6452 19.1556 45.8128 19.0264 45.9088 18.8732H46.0525L46.0669 20.8835C46.3159 20.3857 46.6944 19.9837 47.2024 19.6773C47.71 19.371 48.2467 19.2178 48.8121 19.2178C49.454 19.2178 49.9666 19.4284 50.35 19.8496C50.7427 20.2708 50.9393 20.8261 50.9393 21.5153V25.4209C50.9393 25.7656 51.0445 26.0431 51.2555 26.2538C51.4662 26.4644 51.7442 26.5697 52.0891 26.5697H52.1035V26.7133H47.7198V26.5697H47.7342C48.0791 26.5697 48.3568 26.4644 48.5678 26.2538C48.7785 26.0431 48.884 25.7656 48.884 25.4209V21.3717C48.884 20.8931 48.788 20.5102 48.5965 20.223C48.4143 19.9358 48.17 19.7922 47.8635 19.7922C47.5663 19.7922 47.255 19.9214 46.9293 20.1799C46.6131 20.4288 46.3351 20.7686 46.0957 21.1994V25.4209C46.0957 25.7656 46.2009 26.0431 46.4119 26.2538C46.6226 26.4644 46.9005 26.5697 47.2455 26.5697H47.2599V26.7133H42.8618Z" fill="#7F869E"/>
<path d="M37.6921 26.9143C36.8488 26.9143 36.1157 26.7515 35.4931 26.4261C34.8702 26.1005 34.3864 25.641 34.0414 25.0476C33.706 24.4445 33.5384 23.7409 33.5384 22.9368V17.2363C33.5384 16.8917 33.4329 16.6141 33.2222 16.4035C33.0112 16.1929 32.7335 16.0876 32.3885 16.0876H32.3311V15.944H36.9591V16.0876H36.916C36.5711 16.0876 36.2931 16.1929 36.0824 16.4035C35.8714 16.6141 35.7662 16.8917 35.7662 17.2363V22.9368C35.7662 23.9515 36.0249 24.7556 36.5423 25.3491C37.0692 25.933 37.7784 26.2251 38.6695 26.2251C39.5701 26.2251 40.2793 25.9282 40.7967 25.3347C41.3141 24.7317 41.5728 23.9324 41.5728 22.9368V17.4517C41.5728 17.04 41.4481 16.7146 41.1991 16.4753C40.9499 16.2359 40.6193 16.1067 40.2074 16.0876V15.944H43.1826V16.0876C42.7704 16.1067 42.4398 16.2359 42.1909 16.4753C41.9416 16.7146 41.8172 17.04 41.8172 17.4517V22.9368C41.8172 23.7409 41.6493 24.4397 41.3141 25.0332C40.9881 25.6267 40.5138 26.091 39.8912 26.4261C39.2778 26.7515 38.5448 26.9143 37.6921 26.9143Z" fill="#7F869E"/>
<path fill-rule="evenodd" clip-rule="evenodd" d="M22.3932 1.84144V0.0465698H26.4998V16.585C26.4998 23.7364 20.6968 29.5339 13.5385 29.5339C6.68212 29.5339 1.06919 24.2152 0.607853 17.4825H0.577209V0.0465698H4.68375V1.84144H11.6135V0.0465698H15.7201V1.84144H22.3932ZM22.3932 16.585V14.0679C21.9313 14.5436 21.4362 14.9954 20.9108 15.421C19.1763 16.8259 17.1389 17.9234 14.9227 18.6669C12.7063 19.4105 10.3413 19.7902 7.95992 19.7902H5.28284C6.56788 23.0914 9.77966 25.4312 13.5385 25.4312C18.4288 25.4312 22.3932 21.4706 22.3932 16.585ZM12.003 13.4953C11.2207 14.3238 10.3389 15.0422 9.37988 15.6324C10.8385 15.5186 12.2665 15.2304 13.6154 14.7778C15.3997 14.1792 16.9972 13.3094 18.3245 12.2343C19.6514 11.1595 20.6753 9.9069 21.363 8.56208C21.7972 7.71311 22.0942 6.83398 22.2539 5.944H15.5879C15.4376 7.0348 15.1598 8.10531 14.7587 9.13088C14.1231 10.7559 13.1885 12.2399 12.003 13.4953ZM4.68375 13.1791V5.944H11.4264C11.3127 6.52303 11.148 7.09018 10.9338 7.6377C10.486 8.78262 9.83243 9.81546 9.01597 10.6801C8.19974 11.5444 7.23727 12.2233 6.18687 12.684C5.69902 12.898 5.19586 13.0634 4.68375 13.1791Z" fill="#1D3AA7"/>
</g>
<defs>
<clipPath id="clip0_10_923">
<rect width="106" height="30" fill="white" transform="translate(0.5)"/>
</clipPath>
</defs>
</svg>
