<svg width="110" height="30" viewBox="0 0 110 30" fill="none" xmlns="http://www.w3.org/2000/svg">
<g clip-path="url(#clip0_10_899)">
<path fill-rule="evenodd" clip-rule="evenodd" d="M4.7104 1.94523V0.134888H0.577698V16.8159C0.577698 24.029 6.41762 29.8764 13.6215 29.8764C20.8255 29.8764 26.6654 24.029 26.6654 16.8159V0.134888H22.5327V1.94523H15.5587V0.134888H11.426V1.94523H4.7104ZM11.426 25.4655C7.60262 24.4955 4.76434 21.0508 4.71115 16.9337C5.15162 17.0405 5.58416 17.1815 6.00477 17.3559C7.07025 17.7979 8.03836 18.4455 8.85385 19.2621C9.66934 20.0786 10.3162 21.0479 10.7576 22.1147C11.1971 23.1772 11.4242 24.3156 11.426 25.4655ZM11.7761 16.3361C12.4233 16.984 12.9982 17.6975 13.4924 18.4635C13.9866 17.6975 14.5615 16.984 15.2087 16.3361C15.8558 15.6881 16.5683 15.1125 17.3334 14.6176C16.5683 14.1228 15.8558 13.5472 15.2087 12.8992C14.5615 12.2512 13.9866 11.5378 13.4924 10.7718C12.9982 11.5378 12.4233 12.2512 11.7761 12.8992C11.129 13.5472 10.4165 14.1228 9.65138 14.6176C10.4165 15.1125 11.129 15.6881 11.7761 16.3361ZM22.5325 16.875C22.505 21.1104 19.5303 24.6454 15.5587 25.5269V25.4797C15.5587 24.325 15.7859 23.1816 16.2272 22.1147C16.6686 21.0479 17.3155 20.0786 18.1309 19.2621C18.9464 18.4455 19.9145 17.7979 20.98 17.3559C21.4827 17.1474 22.0025 16.9867 22.5325 16.875ZM11.1128 6.08316C11.0162 6.4353 10.8977 6.78177 10.7576 7.12054C10.3162 8.18738 9.66934 9.15671 8.85385 9.97323C8.03836 10.7897 7.07025 11.4374 6.00477 11.8793C5.5839 12.0539 5.1511 12.195 4.7104 12.3018V6.08316H11.1128ZM22.5327 12.3603V6.08316H15.872C15.9685 6.4353 16.0871 6.78177 16.2272 7.12054C16.6686 8.18738 17.3155 9.15671 18.1309 9.97323C18.9464 10.7897 19.9145 11.4374 20.98 11.8793C21.4828 12.0879 22.0027 12.2487 22.5327 12.3603Z" fill="#09C382"/>
<path d="M33.5828 2.54449V13.5832H40.5378V11.5829H35.8764V2.54449H33.5828Z" fill="#124835"/>
<path d="M68.6111 5.4931V13.5832H70.8309V5.4931H68.6111Z" fill="#124835"/>
<path d="M68.6111 2.54449V4.76705H70.8309V2.54449H68.6111Z" fill="#124835"/>
<path fill-rule="evenodd" clip-rule="evenodd" d="M72.0112 16.5466V5.49311H74.083V6.33239C74.3222 6.05033 74.6182 5.82489 74.9708 5.65609C75.4344 5.42889 75.9624 5.31531 76.5541 5.31531C77.3238 5.31531 78.0192 5.50299 78.6409 5.87835C79.2623 6.25371 79.7557 6.76242 80.1206 7.4045C80.4856 8.0367 80.6682 8.7479 80.6682 9.53814C80.6682 10.3185 80.4856 11.0297 80.1206 11.6718C79.7655 12.3139 79.277 12.8226 78.6556 13.198C78.0341 13.5733 77.3287 13.761 76.5394 13.761C75.9869 13.761 75.4739 13.6622 75.0005 13.4647C74.7089 13.3342 74.4524 13.1666 74.231 12.9619V16.5466H72.0112ZM76.2731 11.7607C76.6874 11.7607 77.0524 11.6669 77.3682 11.4792C77.6839 11.2915 77.9306 11.0297 78.108 10.6939C78.2857 10.358 78.3743 9.97278 78.3743 9.53814C78.3743 9.10351 78.2857 8.7232 78.108 8.39724C77.9306 8.06139 77.6839 7.79962 77.3682 7.61194C77.0524 7.41438 76.6874 7.31561 76.2731 7.31561C75.8784 7.31561 75.5233 7.40944 75.2076 7.59712C74.9018 7.7848 74.66 8.04657 74.4826 8.38242C74.3147 8.71826 74.231 9.10351 74.231 9.53814C74.231 9.97278 74.3147 10.358 74.4826 10.6939C74.66 11.0297 74.9018 11.2915 75.2076 11.4792C75.5233 11.6669 75.8784 11.7607 76.2731 11.7607Z" fill="#124835"/>
<path d="M82.3678 13.1387C83.0287 13.5536 83.8031 13.761 84.6911 13.761C85.3224 13.761 85.87 13.6573 86.3336 13.4498C86.7973 13.2325 87.1573 12.9362 87.4141 12.5608C87.6804 12.1855 87.8134 11.7459 87.8134 11.2421C87.8134 10.6593 87.6359 10.1703 87.2808 9.77522C86.9256 9.37022 86.4127 9.06895 85.7419 8.87139L84.4543 8.48615C84.2569 8.42688 84.0893 8.36266 83.9511 8.29353C83.823 8.22438 83.7292 8.14534 83.6701 8.05645C83.6107 7.96754 83.5812 7.86877 83.5812 7.7601C83.5812 7.55266 83.66 7.38968 83.8178 7.27115C83.9857 7.1526 84.2125 7.09335 84.4987 7.09335C84.8934 7.09335 85.2436 7.19706 85.5494 7.4045C85.8651 7.60206 86.082 7.86877 86.2006 8.20462L87.8431 7.43414C87.5964 6.76242 87.1723 6.24383 86.5705 5.87835C85.9785 5.50299 85.288 5.31531 84.4987 5.31531C83.8969 5.31531 83.3643 5.42395 82.9004 5.64127C82.4367 5.84871 82.0767 6.14013 81.8202 6.51549C81.5637 6.89085 81.4353 7.33043 81.4353 7.8342C81.4353 8.40712 81.613 8.90595 81.9682 9.3307C82.3233 9.74558 82.8314 10.0469 83.4924 10.2346L84.8686 10.6198C85.0463 10.6692 85.1943 10.7284 85.3126 10.7976C85.4309 10.8667 85.5197 10.9458 85.5789 11.0347C85.638 11.1137 85.6677 11.2125 85.6677 11.331C85.6677 11.5582 85.5838 11.736 85.4162 11.8644C85.2485 11.9928 85.0068 12.057 84.6911 12.057C84.2569 12.057 83.8623 11.9336 83.5071 11.6866C83.152 11.4397 82.8709 11.0989 82.6638 10.6642L81.036 11.4347C81.2726 12.1459 81.7166 12.7139 82.3678 13.1387Z" fill="#124835"/>
<path d="M97.111 13.5832V5.49311H99.1827V6.47041C99.3344 6.1747 99.5464 5.93786 99.8192 5.75982C100.273 5.46347 100.815 5.31531 101.447 5.31531C102.118 5.31531 102.705 5.48817 103.208 5.83389C103.507 6.0298 103.741 6.26605 103.909 6.54262C104.123 6.22966 104.378 5.97859 104.673 5.78944C105.166 5.47335 105.743 5.31531 106.404 5.31531C106.986 5.31531 107.499 5.44371 107.943 5.70055C108.397 5.95739 108.752 6.31793 109.009 6.78218C109.265 7.23657 109.394 7.76998 109.394 8.38242V13.5832H107.174V8.85657C107.174 8.54046 107.115 8.26883 106.996 8.04164C106.888 7.81444 106.73 7.63664 106.523 7.50823C106.316 7.3798 106.064 7.31561 105.768 7.31561C105.482 7.31561 105.23 7.3798 105.013 7.50823C104.806 7.63664 104.643 7.81444 104.525 8.04164C104.417 8.26883 104.362 8.54046 104.362 8.85657V13.5832H102.143V8.85657C102.143 8.54046 102.083 8.26883 101.965 8.04164C101.856 7.81444 101.699 7.63664 101.491 7.50823C101.284 7.3798 101.033 7.31561 100.737 7.31561C100.45 7.31561 100.199 7.3798 99.9819 7.50823C99.7747 7.63664 99.612 7.81444 99.4935 8.04164C99.385 8.26883 99.3307 8.54046 99.3307 8.85657V13.5832H97.111Z" fill="#124835"/>
<path d="M91.5966 13.761C90.9455 13.761 90.3881 13.6227 89.9244 13.3461C89.4706 13.0596 89.1253 12.6645 88.8887 12.1608C88.6518 11.657 88.5335 11.0692 88.5335 10.3975V5.4931H90.7533V10.2197C90.7533 10.5259 90.8124 10.7976 90.9307 11.0347C91.0591 11.2618 91.2366 11.4396 91.4636 11.5681C91.6904 11.6965 91.9469 11.7607 92.2331 11.7607C92.5291 11.7607 92.7855 11.6965 93.0025 11.5681C93.2293 11.4396 93.4021 11.2618 93.5204 11.0347C93.6488 10.7976 93.7128 10.5259 93.7128 10.2197V5.4931H95.9326V13.5832H93.8608V12.5987C93.6725 12.9539 93.406 13.2277 93.0617 13.4202C92.6474 13.6474 92.1589 13.761 91.5966 13.761Z" fill="#124835"/>
<path fill-rule="evenodd" clip-rule="evenodd" d="M63.4261 13.761C62.6271 13.761 61.897 13.5783 61.236 13.2128C60.5848 12.8473 60.062 12.3484 59.6674 11.7162C59.2828 11.0742 59.0903 10.3481 59.0903 9.53814C59.0903 8.71826 59.2828 7.99224 59.6674 7.36004C60.062 6.72787 60.5848 6.22901 61.236 5.86353C61.897 5.49805 62.6271 5.31531 63.4261 5.31531C64.2252 5.31531 64.9505 5.49805 65.6014 5.86353C66.2526 6.22901 66.7707 6.72787 67.1553 7.36004C67.55 7.99224 67.7473 8.71826 67.7473 9.53814C67.7473 10.3481 67.55 11.0742 67.1553 11.7162C66.7707 12.3484 66.2526 12.8473 65.6014 13.2128C64.9505 13.5783 64.2252 13.761 63.4261 13.761ZM63.4261 11.7607C63.8305 11.7607 64.1808 11.6669 64.4768 11.4792C64.7826 11.2915 65.0195 11.0297 65.1871 10.6939C65.3648 10.358 65.4537 9.97278 65.4537 9.53814C65.4537 9.10351 65.3648 8.7232 65.1871 8.39724C65.0195 8.06139 64.7826 7.79962 64.4768 7.61194C64.1808 7.41438 63.8305 7.31561 63.4261 7.31561C63.0216 7.31561 62.6664 7.41438 62.3606 7.61194C62.0548 7.79962 61.8133 8.06139 61.6356 8.39724C61.4679 8.7232 61.384 9.10351 61.384 9.53814C61.384 9.97278 61.4679 10.358 61.6356 10.6939C61.8133 11.0297 62.0548 11.2915 62.3606 11.4792C62.6664 11.6669 63.0216 11.7607 63.4261 11.7607Z" fill="#124835"/>
<path fill-rule="evenodd" clip-rule="evenodd" d="M52.4987 16.5318C53.0313 16.7392 53.6086 16.8429 54.23 16.8429C55.0093 16.8429 55.6951 16.6849 56.2868 16.3688C56.8886 16.0527 57.3624 15.6131 57.7077 15.0501C58.0528 14.4969 58.2256 13.8647 58.2256 13.1535V5.49311H56.1538V6.34283C55.91 6.05644 55.6336 5.83247 55.3249 5.67091C54.891 5.43383 54.3829 5.31531 53.8007 5.31531C53.061 5.31531 52.4 5.48323 51.8178 5.81908C51.2359 6.15495 50.7772 6.6192 50.4416 7.21188C50.1061 7.79468 49.9385 8.46639 49.9385 9.227C49.9385 9.9876 50.1061 10.6692 50.4416 11.2717C50.7772 11.8644 51.2408 12.3336 51.8325 12.6793C52.4246 13.0152 53.0953 13.1831 53.8452 13.1831C54.4274 13.1831 54.9354 13.0745 55.3694 12.8572C55.6047 12.734 55.8167 12.5775 56.0058 12.3876V13.1535C56.0058 13.4992 55.9317 13.8005 55.7839 14.0573C55.6457 14.3142 55.4435 14.5068 55.1772 14.6352C54.9106 14.7735 54.595 14.8426 54.23 14.8426C53.7664 14.8426 53.3668 14.734 53.0313 14.5167C52.6958 14.2993 52.4739 14.003 52.3654 13.6276L50.3084 14.3537C50.4762 14.8575 50.7475 15.2921 51.1222 15.6576C51.5071 16.0329 51.9658 16.3243 52.4987 16.5318ZM55.1328 10.9309C54.8564 11.089 54.5309 11.168 54.1559 11.168C53.7811 11.168 53.4456 11.089 53.1496 10.9309C52.8637 10.763 52.6366 10.5358 52.469 10.2494C52.3112 9.9629 52.2321 9.632 52.2321 9.25664C52.2321 8.87139 52.3112 8.53552 52.469 8.24907C52.6366 7.95272 52.8637 7.72555 53.1496 7.56748C53.4456 7.39956 53.7811 7.31561 54.1559 7.31561C54.5211 7.31561 54.8417 7.39956 55.1178 7.56748C55.3942 7.72555 55.6111 7.95272 55.7689 8.24907C55.9268 8.53552 56.0058 8.87139 56.0058 9.25664C56.0058 9.64188 55.9268 9.97772 55.7689 10.2642C55.6209 10.5506 55.4089 10.7729 55.1328 10.9309Z" fill="#124835"/>
<path fill-rule="evenodd" clip-rule="evenodd" d="M45.0792 13.761C44.28 13.761 43.5501 13.5783 42.8891 13.2128C42.238 12.8473 41.7152 12.3484 41.3205 11.7162C40.9357 11.0742 40.7432 10.3481 40.7432 9.53814C40.7432 8.71826 40.9357 7.99224 41.3205 7.36004C41.7152 6.72787 42.238 6.22901 42.8891 5.86353C43.5501 5.49805 44.28 5.31531 45.0792 5.31531C45.8784 5.31531 46.6034 5.49805 47.2546 5.86353C47.9057 6.22901 48.4236 6.72787 48.8085 7.36004C49.2031 7.99224 49.4002 8.71826 49.4002 9.53814C49.4002 10.3481 49.2031 11.0742 48.8085 11.7162C48.4236 12.3484 47.9057 12.8473 47.2546 13.2128C46.6034 13.5783 45.8784 13.761 45.0792 13.761ZM45.0792 11.7607C45.4837 11.7607 45.8339 11.6669 46.1299 11.4792C46.4358 11.2915 46.6726 11.0297 46.8403 10.6939C47.0177 10.358 47.1066 9.97278 47.1066 9.53814C47.1066 9.10351 47.0177 8.7232 46.8403 8.39724C46.6726 8.06139 46.4358 7.79962 46.1299 7.61194C45.8339 7.41438 45.4837 7.31561 45.0792 7.31561C44.6747 7.31561 44.3196 7.41438 44.0137 7.61194C43.7079 7.79962 43.4662 8.06139 43.2887 8.39724C43.1208 8.7232 43.0371 9.10351 43.0371 9.53814C43.0371 9.97278 43.1208 10.358 43.2887 10.6939C43.4662 11.0297 43.7079 11.2915 44.0137 11.4792C44.3196 11.6669 44.6747 11.7607 45.0792 11.7607Z" fill="#124835"/>
<path d="M35.2222 26.5122C35.7181 26.7853 36.2926 26.9219 36.9455 26.9219C37.6068 26.9219 38.1812 26.7853 38.6689 26.5122C39.1648 26.2391 39.5491 25.8667 39.8219 25.3949C40.0947 24.9149 40.231 24.3687 40.231 23.7563V17.5245H39.2392V23.7563C39.2392 24.2032 39.14 24.5963 38.9416 24.9356C38.7515 25.2666 38.4829 25.5273 38.1358 25.7176C37.7969 25.8998 37.4001 25.9908 36.9455 25.9908C36.4909 25.9908 36.0901 25.8998 35.7429 25.7176C35.404 25.5273 35.1354 25.2666 34.937 24.9356C34.7469 24.5963 34.6519 24.2032 34.6519 23.7563V17.5245H33.66V23.7563C33.66 24.3687 33.7964 24.9149 34.0692 25.3949C34.3419 25.8667 34.7263 26.2391 35.2222 26.5122Z" fill="#124835"/>
<path d="M48.6052 20.119V26.7729H49.535V20.119H48.6052Z" fill="#124835"/>
<path d="M48.6052 17.5245V18.8901H49.535V17.5245H48.6052Z" fill="#124835"/>
<path d="M73.9874 26.7729V20.119H74.9173V26.7729H73.9874Z" fill="#124835"/>
<path d="M73.9874 18.8901V17.5245H74.9173V18.8901H73.9874Z" fill="#124835"/>
<path d="M77.6139 26.326C77.9362 26.6736 78.395 26.8474 78.9901 26.8474C79.0645 26.8474 79.1637 26.8391 79.2876 26.8226C79.4116 26.8143 79.5232 26.7977 79.6224 26.7729V25.9412C79.5563 25.9495 79.4777 25.9577 79.3868 25.966C79.2959 25.9743 79.2174 25.9784 79.1513 25.9784C78.8785 25.9784 78.6595 25.9288 78.4942 25.8294C78.3371 25.7301 78.2255 25.5976 78.1594 25.4321C78.0933 25.2583 78.0602 25.0597 78.0602 24.8363V21.0501H79.5232V20.119H78.0602V18.5797H77.1304V19.1383C77.1304 19.4197 77.0477 19.6556 76.8824 19.8459C76.7171 20.028 76.4939 20.119 76.2129 20.119H75.903V21.0501H77.1304V24.8363C77.1304 25.4818 77.2915 25.9784 77.6139 26.326Z" fill="#124835"/>
<path d="M80.6106 29.4667C80.7511 29.4915 80.8875 29.5039 81.0197 29.5039C81.4578 29.5039 81.8297 29.4129 82.1356 29.2308C82.4414 29.0571 82.6935 28.8253 82.8918 28.5357C83.0985 28.246 83.2679 27.9398 83.4002 27.6171L86.4377 20.119H85.4087L83.2447 25.6116L81.0693 20.119H80.0651L82.7229 26.7778L82.4827 27.3439C82.2761 27.8239 82.0653 28.1467 81.8504 28.3122C81.6355 28.486 81.3255 28.5729 80.9205 28.5729C80.7883 28.5729 80.656 28.5605 80.5238 28.5357C80.3998 28.5191 80.2965 28.5067 80.2138 28.4984V29.3674C80.3461 29.4171 80.4783 29.4502 80.6106 29.4667Z" fill="#124835"/>
<path d="M68.6836 26.4378C69.163 26.7605 69.721 26.9219 70.3574 26.9219C70.8203 26.9219 71.2294 26.8433 71.5848 26.6861C71.9402 26.5205 72.2171 26.293 72.4155 26.0033C72.6221 25.7135 72.7254 25.3866 72.7254 25.0225C72.7254 24.5756 72.5725 24.1866 72.2667 23.8556C71.9691 23.5246 71.5517 23.2804 71.0145 23.1232L69.9111 22.8004C69.7953 22.7673 69.659 22.7177 69.5019 22.6515C69.3531 22.5853 69.2209 22.486 69.1052 22.3535C68.9895 22.2211 68.9316 22.0432 68.9316 21.8197C68.9316 21.5301 69.0432 21.2901 69.2664 21.0997C69.4895 20.9094 69.7871 20.8142 70.159 20.8142C70.5392 20.8142 70.8822 20.9218 71.1881 21.137C71.5022 21.3439 71.7418 21.6335 71.9072 22.006L72.7006 21.6335C72.5105 21.1122 72.184 20.7066 71.7212 20.417C71.2666 20.1191 70.7583 19.9701 70.1962 19.9701C69.783 19.9701 69.4069 20.0487 69.068 20.206C68.7291 20.3632 68.4605 20.5866 68.2621 20.8763C68.0637 21.166 67.9646 21.5053 67.9646 21.8942C67.9646 22.308 68.1009 22.6722 68.3737 22.9866C68.6465 23.3011 69.0887 23.5453 69.7003 23.7191L70.655 23.9922C70.7872 24.0253 70.9401 24.0791 71.1137 24.1535C71.2873 24.228 71.4402 24.3356 71.5724 24.4763C71.7047 24.6087 71.7708 24.7908 71.7708 25.0225C71.7708 25.337 71.6344 25.5935 71.3616 25.7922C71.0889 25.9826 70.7541 26.0778 70.3574 26.0778C69.9441 26.0778 69.5639 25.9578 69.2168 25.7177C68.8779 25.4777 68.6134 25.1549 68.4233 24.7494L67.6422 25.1218C67.8571 25.6763 68.2043 26.115 68.6836 26.4378Z" fill="#124835"/>
<path d="M64.234 26.773V20.1191H65.1639V20.839C65.3121 20.6224 65.5064 20.4445 65.7466 20.3053C66.0689 20.1232 66.4574 20.0322 66.912 20.0322H67.3335V20.9632H66.7508C66.2714 20.9632 65.8871 21.1122 65.5978 21.4101C65.3085 21.708 65.1639 22.1301 65.1639 22.6763V26.773H64.234Z" fill="#124835"/>
<path fill-rule="evenodd" clip-rule="evenodd" d="M58.3173 26.475C58.8214 26.773 59.3835 26.9219 60.0034 26.9219C60.458 26.9219 60.8713 26.8474 61.2432 26.6985C61.6234 26.5412 61.9499 26.3385 62.2227 26.0902C62.4954 25.8335 62.6979 25.5563 62.8302 25.2584L62.0367 24.8363C61.8301 25.1839 61.5614 25.4735 61.2308 25.7053C60.9002 25.9371 60.4911 26.053 60.0034 26.053C59.5819 26.053 59.1851 25.9454 58.8132 25.7301C58.4495 25.5149 58.1602 25.2129 57.9453 24.8239C57.7782 24.503 57.6922 24.1388 57.6873 23.7315H62.917C62.9335 23.6239 62.9459 23.5204 62.9542 23.4211C62.9624 23.3135 62.9665 23.2184 62.9665 23.1356C62.9665 22.7384 62.8963 22.3535 62.7558 21.9811C62.6153 21.6004 62.4128 21.2611 62.1483 20.9632C61.8838 20.657 61.5614 20.417 61.1812 20.2432C60.8093 20.0611 60.3836 19.9701 59.9042 19.9701C59.3008 19.9701 58.7553 20.1191 58.2677 20.417C57.7883 20.7149 57.4081 21.1246 57.127 21.646C56.846 22.1591 56.7055 22.7508 56.7055 23.4211C56.7055 24.0915 56.8502 24.6915 57.1394 25.2211C57.4287 25.7508 57.8213 26.1688 58.3173 26.475ZM61.9698 22.8625H57.702C57.7327 22.569 57.8097 22.3042 57.9329 22.068C58.1313 21.6791 58.404 21.377 58.7512 21.1618C59.1066 20.9466 59.4909 20.8391 59.9042 20.8391C60.3175 20.8391 60.6894 20.9466 61.02 21.1618C61.3507 21.3687 61.6028 21.6542 61.7763 22.0184C61.907 22.2741 61.9713 22.5555 61.9698 22.8625Z" fill="#124835"/>
<path d="M52.8394 26.7729L50.2482 20.119H51.2896L53.3048 25.5072L55.3314 20.119H56.3852L53.7692 26.7729H52.8394Z" fill="#124835"/>
<path d="M41.8699 26.773V20.1191H42.7997V20.9432C42.9545 20.7044 43.1528 20.5042 43.3948 20.3425C43.7751 20.0942 44.2131 19.9701 44.709 19.9701C45.1802 19.9701 45.6017 20.0777 45.9736 20.2929C46.3539 20.508 46.6514 20.806 46.8663 21.1866C47.0895 21.5591 47.2011 21.9811 47.2011 22.4529V26.773H46.2712V22.8129C46.2712 22.4073 46.1968 22.0639 46.048 21.7825C45.9075 21.5011 45.705 21.286 45.4405 21.137C45.1843 20.9797 44.8867 20.9011 44.5479 20.9011C44.209 20.9011 43.9073 20.9797 43.6428 21.137C43.3783 21.286 43.1717 21.5053 43.0229 21.7949C42.8741 22.0763 42.7997 22.4156 42.7997 22.8129V26.773H41.8699Z" fill="#124835"/>
</g>
<defs>
<clipPath id="clip0_10_899">
<rect width="109" height="30" fill="white" transform="translate(0.5)"/>
</clipPath>
</defs>
</svg>
