<svg width="115" height="30" viewBox="0 0 115 30" fill="none" xmlns="http://www.w3.org/2000/svg">
<g clip-path="url(#clip0_10_958)">
<path fill-rule="evenodd" clip-rule="evenodd" d="M17.965 6.40137C16.9369 6.40137 15.9189 6.60372 14.969 6.99683C14.0192 7.38994 13.1561 7.9661 12.4292 8.69249C11.7022 9.41884 11.1255 10.2812 10.732 11.2302C10.3821 12.0743 10.1832 12.9722 10.1435 13.8832C10.1344 14.0917 10.0183 14.2826 9.83185 14.3757L7.3088 15.6362C7.12236 15.7293 7.00287 15.9201 7.01196 16.1287C7.05168 17.0396 7.25056 17.9376 7.60047 18.7816C7.99393 19.7307 8.5706 20.593 9.29759 21.3194C10.0246 22.0457 10.8876 22.6219 11.8375 23.015C12.7873 23.4081 13.8053 23.6105 14.8335 23.6105C15.8616 23.6105 16.8796 23.4081 17.8295 23.015C18.7793 22.6219 19.6424 22.0457 20.3693 21.3194C21.0963 20.593 21.673 19.7307 22.0664 18.7816C22.4164 17.9376 22.6152 17.0396 22.655 16.1287C22.6641 15.9201 22.7802 15.7293 22.9666 15.6362L25.4897 14.3757C25.6761 14.2826 25.7956 14.0917 25.7865 13.8832C25.7468 12.9722 25.5479 12.0743 25.198 11.2302C24.8046 10.2812 24.2279 9.41884 23.5009 8.69249C22.7739 7.9661 21.9109 7.38994 20.961 6.99683C20.0112 6.60372 18.9931 6.40137 17.965 6.40137ZM21.5815 12.727C21.7347 13.0964 21.83 13.4865 21.8647 13.8835C21.8828 14.0914 21.7617 14.2826 21.5752 14.3757L19.0522 15.6362C18.8657 15.7293 18.7512 15.9204 18.7331 16.1283C18.6984 16.5254 18.6031 16.9155 18.45 17.2849C18.2532 17.7594 17.9649 18.1906 17.6014 18.5538C17.2379 18.9169 16.8064 19.205 16.3314 19.4016C15.8565 19.5981 15.3475 19.6993 14.8335 19.6993C14.3194 19.6993 13.8104 19.5981 13.3355 19.4016C12.8605 19.205 12.429 18.9169 12.0655 18.5538C11.702 18.1906 11.4137 17.7594 11.217 17.2849C11.0638 16.9155 10.9685 16.5254 10.9338 16.1283C10.9157 15.9204 11.0368 15.7293 11.2233 15.6362L13.7463 14.3757C13.9327 14.2826 14.0472 14.0914 14.0654 13.8835C14.1001 13.4865 14.1954 13.0964 14.3485 12.727C14.5452 12.2524 14.8336 11.8213 15.1971 11.4581C15.5606 11.0949 15.9921 10.8068 16.467 10.6103C16.942 10.4137 17.451 10.3125 17.965 10.3125C18.4791 10.3125 18.9881 10.4137 19.463 10.6103C19.9379 10.8068 20.3695 11.0949 20.733 11.4581C21.0965 11.8213 21.3848 12.2524 21.5815 12.727Z" fill="#E22935"/>
<path fill-rule="evenodd" clip-rule="evenodd" d="M17.965 0.143555C16.1144 0.143555 14.2819 0.507748 12.5722 1.21534C10.8625 1.92294 9.309 2.96008 8.00042 4.26753C6.69186 5.57501 5.65386 7.1272 4.94566 8.83546C4.28097 10.4388 3.91905 12.1502 3.87708 13.8831C3.87202 14.0918 3.75514 14.2826 3.5687 14.3757L1.04564 15.6362C0.85921 15.7293 0.740464 15.9201 0.745516 16.1288C0.787483 17.8617 1.14941 19.5731 1.81409 21.1764C2.52228 22.8847 3.5603 24.4369 4.86885 25.7443C6.17743 27.0518 7.73091 28.0891 9.44066 28.7964C11.1504 29.504 12.9828 29.8684 14.8334 29.8684C16.684 29.8684 18.5165 29.504 20.2262 28.7964C21.936 28.0891 23.4894 27.0518 24.798 25.7443C26.1066 24.4369 27.1446 22.8847 27.8528 21.1764C28.5176 19.5731 28.8794 17.8617 28.9214 16.1288C28.9263 15.9201 29.0434 15.7293 29.2296 15.6362L31.7527 14.3757C31.9392 14.2826 32.0579 14.0918 32.053 13.8831C32.0109 12.1502 31.6492 10.4388 30.9844 8.83546C30.2762 7.1272 29.2381 5.57501 27.9296 4.26753C26.621 2.96008 25.0675 1.92294 23.3578 1.21534C21.6481 0.50775 19.8156 0.143555 17.965 0.143555ZM25.0053 16.1287C25.0123 15.9201 25.1288 15.7293 25.3153 15.6362L27.8383 14.3757C28.0248 14.2826 28.144 14.0917 28.1369 13.8831C28.0959 12.6639 27.8358 11.461 27.3679 10.3322C26.8564 9.09844 26.1067 7.97741 25.1616 7.03315C24.2166 6.08887 23.0946 5.33983 21.8598 4.82878C20.625 4.31774 19.3015 4.0547 17.965 4.0547C16.6285 4.0547 15.305 4.31774 14.0702 4.82878C12.8354 5.33983 11.7134 6.08887 10.7684 7.03315C9.82329 7.97741 9.07361 9.09844 8.56215 10.3322C8.0942 11.461 7.834 12.6639 7.79313 13.8831C7.78612 14.0917 7.6696 14.2826 7.48316 14.3757L4.96011 15.6362C4.77367 15.7293 4.65456 15.9201 4.66156 16.1287C4.70244 17.348 4.96263 18.5509 5.43058 19.6797C5.94204 20.9134 6.69172 22.0345 7.6368 22.9787C8.58187 23.923 9.70385 24.672 10.9386 25.1831C12.1734 25.6941 13.4969 25.9572 14.8334 25.9572C16.17 25.9572 17.4934 25.6941 18.7282 25.1831C19.963 24.672 21.085 23.923 22.0301 22.9787C22.9752 22.0345 23.7248 20.9134 24.2363 19.6797C24.7043 18.5509 24.9644 17.348 25.0053 16.1287Z" fill="#E22935"/>
<path d="M73.7737 4.77513C73.3564 4.77513 73.0037 4.63063 72.7152 4.34164C72.4268 4.05265 72.2826 3.70174 72.2826 3.28889C72.2826 2.86573 72.4268 2.51224 72.7152 2.22841C73.0037 1.93942 73.3564 1.79492 73.7737 1.79492C74.1909 1.79492 74.5412 1.93942 74.8244 2.22841C75.1128 2.51224 75.257 2.86573 75.257 3.28889C75.257 3.70174 75.1128 4.05265 74.8244 4.34164C74.5412 4.63063 74.1909 4.77513 73.7737 4.77513Z" fill="#370808"/>
<path d="M72.5453 14.0564V5.72729H74.9868V14.0564H72.5453Z" fill="#370808"/>
<path fill-rule="evenodd" clip-rule="evenodd" d="M76.3641 16.5071V5.72727H78.6818V6.55555H78.712C78.8581 6.41141 79.0155 6.27982 79.1839 6.16076C79.73 5.77888 80.3583 5.58795 81.0692 5.58795C81.6925 5.58795 82.2872 5.7505 82.8539 6.0756C83.4255 6.40073 83.889 6.88324 84.2444 7.52314C84.5999 8.16305 84.7724 8.96036 84.7622 9.91505C84.7672 10.6375 84.6669 11.2671 84.4609 11.8038C84.2549 12.3354 83.9766 12.7766 83.6264 13.1275C83.2761 13.4784 82.8847 13.7416 82.452 13.9171C82.0194 14.0925 81.5815 14.1803 81.1387 14.1803C80.4382 14.1803 79.8097 13.9842 79.2534 13.592C79.1136 13.4919 78.9809 13.3835 78.8554 13.2669H78.8054V15.1093L76.3641 16.5071ZM80.567 12.1367C80.9274 12.1315 81.2442 12.0361 81.5172 11.8503C81.7903 11.6645 82.004 11.4013 82.1584 11.0607C82.313 10.7201 82.3877 10.3227 82.3825 9.86862C82.3877 9.40417 82.3105 9.0068 82.1507 8.67652C81.9963 8.3411 81.7773 8.08566 81.4941 7.9102C81.2106 7.72957 80.8862 7.64185 80.5206 7.647C80.1756 7.64185 79.8665 7.72698 79.5935 7.90244C79.3204 8.0779 79.1043 8.33336 78.9444 8.66879C78.7848 8.99906 78.7051 9.399 78.7051 9.86862C78.7051 10.3227 78.7848 10.7201 78.9444 11.0607C79.1092 11.4013 79.3309 11.6645 79.6089 11.8503C79.8872 12.0361 80.2063 12.1315 80.567 12.1367Z" fill="#370808"/>
<path d="M88.5344 14.1802C88.0399 14.1802 87.5661 14.0951 87.1128 13.9248C86.6648 13.7545 86.2681 13.5145 85.9231 13.2049C85.5781 12.8901 85.3179 12.5237 85.1429 12.1057L87.059 11.2619C87.1875 11.5045 87.3806 11.7341 87.6383 11.9509C87.8957 12.1676 88.1998 12.276 88.55 12.276C88.7355 12.276 88.8975 12.245 89.0368 12.1831C89.1758 12.116 89.284 12.0309 89.3612 11.9276C89.4436 11.8244 89.4848 11.7135 89.4848 11.5948C89.4848 11.4451 89.4255 11.3161 89.3071 11.2078C89.1887 11.0994 89.0368 11.0065 88.8514 10.9291C88.666 10.8517 88.4701 10.7846 88.2641 10.7278C88.0633 10.6711 87.8778 10.6194 87.7078 10.573C87.3164 10.4543 86.9455 10.2917 86.5953 10.0853C86.2503 9.87374 85.9695 9.60539 85.7531 9.28026C85.5369 8.95516 85.4286 8.56038 85.4286 8.09593C85.4286 7.60569 85.555 7.17476 85.8072 6.8032C86.0648 6.42649 86.4123 6.13233 86.8502 5.92076C87.2933 5.70916 87.7979 5.60339 88.3646 5.60339C89.07 5.60339 89.7038 5.76594 90.265 6.09104C90.8317 6.41617 91.2333 6.84707 91.4704 7.38377L89.5931 8.19655C89.495 8.03141 89.3508 7.87145 89.1604 7.71663C88.975 7.56182 88.7379 7.48439 88.4495 7.48439C88.2075 7.48439 88.0067 7.54632 87.8468 7.67017C87.6872 7.79403 87.6073 7.94884 87.6073 8.13462C87.6073 8.3204 87.6872 8.47007 87.8468 8.5836C88.0067 8.69714 88.21 8.79517 88.4572 8.87774C88.7044 8.96031 88.9621 9.04032 89.2299 9.11771C89.4359 9.17449 89.6755 9.25706 89.9482 9.36542C90.2213 9.46863 90.4867 9.61054 90.744 9.79117C91.0067 9.97178 91.2231 10.204 91.3932 10.4878C91.5681 10.7717 91.6558 11.12 91.6558 11.5329C91.6558 12.0541 91.5116 12.5159 91.2231 12.9185C90.9399 13.3158 90.5614 13.6254 90.0875 13.8474C89.6186 14.0693 89.1011 14.1802 88.5344 14.1802Z" fill="#370808"/>
<path d="M101.58 14.0564V5.72725H103.906V6.78773H103.948C104.13 6.53433 104.334 6.32017 104.562 6.14524C105.026 5.784 105.574 5.60339 106.208 5.60339C106.733 5.60339 107.179 5.73239 107.545 5.99042C107.827 6.18278 108.057 6.44081 108.234 6.7645H108.278C108.541 6.42831 108.861 6.16514 109.236 5.97495C109.726 5.72725 110.259 5.60339 110.836 5.60339C111.387 5.60339 111.84 5.70143 112.196 5.89753C112.551 6.08849 112.829 6.34134 113.03 6.65615C113.231 6.96578 113.372 7.30638 113.455 7.67793C113.537 8.04432 113.578 8.40041 113.578 8.74615V14.0564H111.122V9.04805C111.122 8.59393 111.026 8.2456 110.836 8.00304C110.65 7.75533 110.377 7.63148 110.017 7.63148C109.78 7.63148 109.569 7.68567 109.383 7.79403C109.203 7.89724 109.059 8.05464 108.951 8.26624C108.848 8.47781 108.796 8.73842 108.796 9.04805V14.0564H106.355V9.04805C106.355 8.59393 106.26 8.2456 106.069 8.00304C105.878 7.75533 105.603 7.63148 105.242 7.63148C104.892 7.63148 104.601 7.75274 104.369 7.9953C104.138 8.23269 104.022 8.58875 104.022 9.06352V14.0564H101.58Z" fill="#370808"/>
<path d="M94.0451 13.8165C94.5141 14.059 95.0341 14.1803 95.606 14.1803C96.2806 14.1803 96.8781 14.0151 97.3984 13.6849C97.6616 13.5151 97.9011 13.3216 98.1167 13.1043H98.1788C98.2524 13.2736 98.3604 13.4233 98.5032 13.5533C98.7864 13.8113 99.2345 14.0203 99.8473 14.1803L100.713 12.1367C100.445 12.0386 100.267 11.9225 100.18 11.7884C100.092 11.6542 100.048 11.4375 100.048 11.1381V5.72729H97.6069V10.635C97.6069 10.9395 97.5476 11.2026 97.4292 11.4245C97.316 11.6413 97.1561 11.809 96.9501 11.9277C96.7493 12.0464 96.515 12.1057 96.2471 12.1057C95.8867 12.1057 95.5802 11.9819 95.3277 11.7342C95.0805 11.4813 94.9569 11.1149 94.9569 10.635V5.72729H92.5156V10.9601C92.5156 11.6619 92.6522 12.2528 92.9249 12.7327C93.2032 13.2075 93.5765 13.5687 94.0451 13.8165Z" fill="#370808"/>
<path fill-rule="evenodd" clip-rule="evenodd" d="M67.2586 14.1802C66.4601 14.1802 65.7313 13.997 65.072 13.6306C64.418 13.2642 63.8952 12.7585 63.5038 12.1134C63.1176 11.4683 62.9244 10.7252 62.9244 9.88406C62.9244 9.04288 63.1176 8.29976 63.5038 7.65471C63.8952 7.00962 64.418 6.50648 65.072 6.14524C65.7313 5.784 66.4601 5.60339 67.2586 5.60339C68.0723 5.60339 68.8063 5.784 69.4603 6.14524C70.1147 6.50648 70.6322 7.00962 71.0132 7.65471C71.3997 8.29976 71.5928 9.04288 71.5928 9.88406C71.5928 10.7252 71.3997 11.4683 71.0132 12.1134C70.6322 12.7585 70.1119 13.2642 69.4527 13.6306C68.7986 13.997 68.0671 14.1802 67.2586 14.1802ZM67.2586 12.0902C67.6396 12.0902 67.9822 11.9973 68.286 11.8115C68.5901 11.6257 68.8294 11.3677 69.0046 11.0374C69.1796 10.7072 69.2672 10.3227 69.2672 9.88406C69.2672 9.4609 69.1824 9.08416 69.0123 8.75389C68.8423 8.42361 68.608 8.16559 68.3094 7.97981C68.0105 7.78888 67.6655 7.6934 67.274 7.6934C66.8878 7.6934 66.54 7.78629 66.231 7.97207C65.9272 8.15271 65.6876 8.40815 65.5124 8.73842C65.3374 9.0687 65.2498 9.45058 65.2498 9.88406C65.2498 10.3227 65.3374 10.7072 65.5124 11.0374C65.6929 11.3677 65.9349 11.6257 66.2387 11.8115C66.5425 11.9973 66.8826 12.0902 67.2586 12.0902Z" fill="#370808"/>
<path fill-rule="evenodd" clip-rule="evenodd" d="M57.5992 17.4314C56.9089 17.4314 56.2754 17.3463 55.6986 17.176C55.1269 17.0108 54.6761 16.8405 54.3465 16.6651L55.15 14.7453C55.4384 14.9208 55.7733 15.0705 56.1543 15.1943C56.5405 15.3233 56.932 15.3878 57.3286 15.3878C57.6687 15.3878 58.0214 15.3311 58.3871 15.2176C58.753 15.104 59.0645 14.9234 59.3219 14.6757C59.5795 14.4332 59.7084 14.1132 59.7084 13.7158V12.9108H59.6713C59.5202 13.0602 59.3573 13.197 59.1829 13.321C58.6318 13.7081 58.0033 13.9016 57.2979 13.9016C56.86 13.9016 56.4249 13.819 55.9922 13.6539C55.5596 13.4836 55.1654 13.2281 54.8099 12.8875C54.4597 12.5418 54.1792 12.1109 53.968 11.5949C53.7567 11.0788 53.6512 10.4724 53.6512 9.77575C53.6512 8.84685 53.8314 8.07535 54.1919 7.46124C54.5578 6.84197 55.0264 6.37752 55.598 6.06789C56.1697 5.75311 56.7647 5.5957 57.3828 5.5957C58.0986 5.5957 58.7244 5.7789 59.26 6.14531C59.432 6.26179 59.5919 6.39081 59.7394 6.53234H59.7855V5.71956H62.0029V13.5765C62.0029 14.2112 61.8947 14.7686 61.6785 15.2485C61.462 15.7284 61.1555 16.131 60.7591 16.4561C60.3676 16.7812 59.9039 17.0238 59.3683 17.1837C58.8326 17.3489 58.2428 17.4314 57.5992 17.4314ZM57.9003 11.9122C58.2711 11.9122 58.5983 11.8193 58.8815 11.6335C59.165 11.4478 59.3889 11.1897 59.5537 10.8595C59.7185 10.524 59.8009 10.137 59.8009 9.69833C59.8009 9.25452 59.7213 8.87523 59.5614 8.56045C59.4018 8.24049 59.1829 7.99535 58.9049 7.82506C58.6266 7.65475 58.3046 7.56962 57.939 7.56962C57.5734 7.56962 57.2462 7.65734 56.9578 7.8328C56.6694 8.00311 56.4427 8.24823 56.2779 8.56818C56.1183 8.88813 56.0384 9.26484 56.0384 9.69833C56.0384 10.1318 56.1183 10.5163 56.2779 10.8517C56.4375 11.182 56.6565 11.4426 56.9347 11.6335C57.2127 11.8193 57.5347 11.9122 57.9003 11.9122Z" fill="#370808"/>
<path fill-rule="evenodd" clip-rule="evenodd" d="M48.6967 14.1802C47.8982 14.1802 47.1694 13.997 46.5101 13.6306C45.8561 13.2642 45.3333 12.7585 44.9419 12.1134C44.5557 11.4683 44.3625 10.7252 44.3625 9.88406C44.3625 9.04288 44.5557 8.29976 44.9419 7.65471C45.3333 7.00962 45.8561 6.50648 46.5101 6.14524C47.1694 5.784 47.8982 5.60339 48.6967 5.60339C49.5104 5.60339 50.2444 5.784 50.8985 6.14524C51.5528 6.50648 52.0703 7.00962 52.4513 7.65471C52.8378 8.29976 53.0309 9.04288 53.0309 9.88406C53.0309 10.7252 52.8378 11.4683 52.4513 12.1134C52.0703 12.7585 51.55 13.2642 50.8908 13.6306C50.2367 13.997 49.5052 14.1802 48.6967 14.1802ZM48.6967 12.0902C49.0778 12.0902 49.4203 11.9973 49.7241 11.8115C50.0282 11.6257 50.2675 11.3677 50.4427 11.0374C50.6177 10.7072 50.7053 10.3227 50.7053 9.88406C50.7053 9.4609 50.6205 9.08416 50.4504 8.75389C50.2804 8.42361 50.0461 8.16559 49.7475 7.97981C49.4486 7.78888 49.1036 7.6934 48.7121 7.6934C48.3259 7.6934 47.9781 7.78629 47.6691 7.97207C47.3653 8.15271 47.1257 8.40815 46.9505 8.73842C46.7755 9.0687 46.6879 9.45058 46.6879 9.88406C46.6879 10.3227 46.7755 10.7072 46.9505 11.0374C47.131 11.3677 47.373 11.6257 47.6768 11.8115C47.9806 11.9973 48.3207 12.0902 48.6967 12.0902Z" fill="#370808"/>
<path d="M37.7623 14.0564V2.64642H40.2964V11.7961H44.3988V14.0564H37.7623Z" fill="#370808"/>
<path fill-rule="evenodd" clip-rule="evenodd" d="M76.3675 18.1566V20.4452H76.298C76.1972 20.3573 76.0917 20.2747 75.981 20.1975C75.4404 19.8156 74.8171 19.6246 74.1114 19.6246C73.4881 19.6246 72.8906 19.7872 72.319 20.1123C71.7473 20.4374 71.2836 20.9199 70.9284 21.5598C70.573 22.1997 70.4029 22.9971 70.4183 23.9517C70.4082 24.6742 70.5059 25.3038 70.712 25.8405C70.918 26.3721 71.1963 26.8133 71.5465 27.1642C71.8967 27.5151 72.2882 27.7783 72.7208 27.9537C73.1535 28.1293 73.5911 28.2171 74.0342 28.2171C74.7347 28.2171 75.3629 28.0208 75.9192 27.6286C76.198 27.4295 76.4477 27.1973 76.6683 26.932H76.7444C76.8023 27.0815 76.8902 27.2234 77.0086 27.3577C77.1682 27.5279 77.3795 27.6853 77.6421 27.8298C77.9099 27.9694 78.2346 28.0982 78.6156 28.2171L79.4732 26.1734C79.2361 26.0857 79.0664 25.9799 78.9634 25.856C78.8604 25.7322 78.8087 25.518 78.8087 25.2135V16.7589L76.3675 18.1566ZM75.564 25.887C75.2857 26.0727 74.9665 26.1682 74.6058 26.1734C74.2504 26.1682 73.9336 26.0727 73.6556 25.887C73.3774 25.7012 73.1612 25.438 73.0065 25.0974C72.8574 24.7568 72.7851 24.3594 72.7903 23.9053C72.7851 23.4409 72.8623 23.0435 73.0222 22.7132C73.1818 22.3778 73.4007 22.1224 73.6787 21.9469C73.9619 21.7663 74.2866 21.6785 74.6523 21.6837C74.9973 21.6785 75.3063 21.7637 75.5794 21.9391C75.8524 22.1146 76.0686 22.3701 76.2282 22.7055C76.3881 23.0358 76.4705 23.4357 76.4754 23.9053C76.4705 24.3594 76.3881 24.7568 76.2282 25.0974C76.0686 25.438 75.8472 25.7012 75.564 25.887Z" fill="#AAAAAA"/>
<path d="M106.674 28.0932V19.764H109.039V20.8554H109.076C109.141 20.7568 109.214 20.6639 109.294 20.5768C109.582 20.2671 109.927 20.0349 110.329 19.8801C110.731 19.7201 111.161 19.6401 111.619 19.6401C112.175 19.6401 112.654 19.7691 113.056 20.0272C113.458 20.2852 113.767 20.6387 113.983 21.0877C114.199 21.5366 114.308 22.0553 114.308 22.6436V28.0932H111.866V23.1777C111.866 22.6771 111.748 22.303 111.511 22.0553C111.274 21.8024 110.952 21.676 110.545 21.676C110.277 21.676 110.035 21.7353 109.819 21.854C109.603 21.9675 109.43 22.1378 109.301 22.3649C109.178 22.5868 109.116 22.8655 109.116 23.2009V28.0932H106.674Z" fill="#AAAAAA"/>
<path fill-rule="evenodd" clip-rule="evenodd" d="M101.656 28.2171C100.858 28.2171 100.129 28.0338 99.4695 27.6674C98.8155 27.301 98.2927 26.7952 97.9013 26.1502C97.515 25.5051 97.3217 24.762 97.3217 23.9208C97.3217 23.0797 97.515 22.3365 97.9013 21.6914C98.2927 21.0464 98.8155 20.5432 99.4695 20.182C100.129 19.8207 100.858 19.6401 101.656 19.6401C102.47 19.6401 103.204 19.8207 103.858 20.182C104.512 20.5432 105.03 21.0464 105.411 21.6914C105.797 22.3365 105.99 23.0797 105.99 23.9208C105.99 24.762 105.797 25.5051 105.411 26.1502C105.03 26.7952 104.509 27.301 103.85 27.6674C103.196 28.0338 102.465 28.2171 101.656 28.2171ZM101.656 26.1269C102.037 26.1269 102.38 26.034 102.684 25.8483C102.987 25.6625 103.227 25.4045 103.402 25.0742C103.577 24.7439 103.665 24.3595 103.665 23.9208C103.665 23.4976 103.58 23.1209 103.41 22.7907C103.24 22.4604 103.005 22.2024 102.707 22.0166C102.408 21.8256 102.063 21.7301 101.672 21.7301C101.285 21.7301 100.938 21.823 100.628 22.0088C100.325 22.1894 100.085 22.4449 99.9099 22.7752C99.7349 23.1054 99.6473 23.4873 99.6473 23.9208C99.6473 24.3595 99.7349 24.7439 99.9099 25.0742C100.09 25.4045 100.332 25.6625 100.636 25.8483C100.94 26.034 101.28 26.1269 101.656 26.1269Z" fill="#AAAAAA"/>
<path d="M94.1654 28.0932V19.764H96.6067V28.0932H94.1654Z" fill="#AAAAAA"/>
<path d="M94.3352 18.3783C94.6237 18.6673 94.9767 18.8118 95.3939 18.8118C95.8109 18.8118 96.1612 18.6673 96.4446 18.3783C96.7331 18.0893 96.8773 17.7384 96.8773 17.3256C96.8773 16.9024 96.7331 16.5489 96.4446 16.2651C96.1612 15.9761 95.8109 15.8316 95.3939 15.8316C94.9767 15.8316 94.6237 15.9761 94.3352 16.2651C94.0468 16.5489 93.9026 16.9024 93.9026 17.3256C93.9026 17.7384 94.0468 18.0893 94.3352 18.3783Z" fill="#AAAAAA"/>
<path d="M89.6798 27.3655C90.1795 27.933 90.9418 28.2171 91.9667 28.2171C92.2809 28.2171 92.59 28.1885 92.8938 28.1318C93.2028 28.0751 93.4734 27.99 93.7053 27.8763L92.9171 25.9489C92.8295 25.9953 92.729 26.034 92.6158 26.065C92.5024 26.096 92.3867 26.1115 92.268 26.1115C92.0159 26.1115 91.8019 26.034 91.6269 25.8792C91.4569 25.7193 91.372 25.4612 91.372 25.1051V21.7921H93.2957V19.764H91.372V17.3643H88.9304V19.764H87.5399V21.7921H88.9304V25.1671C88.9304 26.0599 89.1804 26.7927 89.6798 27.3655Z" fill="#AAAAAA"/>
<path fill-rule="evenodd" clip-rule="evenodd" d="M81.1541 27.8763C81.5815 28.1034 82.076 28.2171 82.6374 28.2171C83.2863 28.2171 83.8582 28.088 84.3527 27.8298C84.7523 27.6234 85.0449 27.3938 85.2303 27.141H85.268C85.3402 27.2648 85.4366 27.3887 85.5578 27.5125C85.7998 27.7602 86.1605 27.9641 86.6395 28.1241L86.9252 28.2171L87.7828 26.1734L87.5974 26.1115C87.4172 26.0547 87.2908 25.9541 87.2189 25.8096C87.1518 25.6599 87.1183 25.4432 87.1183 25.1593V22.6513C87.1183 22.352 87.0823 22.0295 87.0104 21.6837C86.9433 21.3328 86.7991 21.0051 86.5777 20.7006C86.356 20.391 86.0162 20.1381 85.5578 19.942C85.0993 19.7408 84.4812 19.6401 83.7036 19.6401C83.2039 19.6401 82.7352 19.6814 82.2974 19.764C81.8647 19.8414 81.4785 19.9394 81.1387 20.0581C80.8038 20.1768 80.5332 20.2955 80.3272 20.4142L81.1387 22.2565C81.3291 22.1327 81.5557 22.0243 81.8186 21.9314C82.0812 21.8334 82.3542 21.7585 82.6374 21.7069C82.9207 21.6502 83.186 21.6218 83.4332 21.6218C83.6494 21.6218 83.8425 21.6476 84.0126 21.6992C84.1826 21.7456 84.3268 21.8153 84.4452 21.9082C84.5636 22.0011 84.6513 22.1146 84.7078 22.2488C84.7696 22.3778 84.8007 22.5223 84.8007 22.6823V23.1003H83.2322C82.5111 23.1003 81.893 23.2112 81.3779 23.4331C80.8681 23.655 80.4767 23.9595 80.2036 24.3466C79.9358 24.7336 79.802 25.1774 79.802 25.678C79.802 26.1528 79.9204 26.5811 80.1575 26.9629C80.3995 27.3448 80.7316 27.6493 81.1541 27.8763ZM83.5258 24.633H84.9166V25.1516C84.9166 25.4561 84.8185 25.6986 84.623 25.8792C84.4323 26.0599 84.2057 26.1889 83.9431 26.2663C83.6805 26.3437 83.4511 26.3824 83.2555 26.3824C83.0443 26.3824 82.8536 26.3489 82.6839 26.2818C82.519 26.2095 82.3902 26.1115 82.2974 25.9876C82.2048 25.8586 82.1584 25.7038 82.1584 25.5232C82.1584 25.2187 82.2743 24.9942 82.5061 24.8497C82.7429 24.7052 83.083 24.633 83.5258 24.633Z" fill="#AAAAAA"/>
<path d="M62.2245 28.0932V19.764H64.5885V20.8554H64.6259C64.6913 20.7568 64.7638 20.6639 64.8437 20.5768C65.1322 20.2671 65.4772 20.0349 65.8788 19.8801C66.2807 19.7201 66.7106 19.6401 67.1691 19.6401C67.7253 19.6401 68.2044 19.7691 68.606 20.0272C69.0079 20.2852 69.3169 20.6387 69.5331 21.0877C69.7496 21.5366 69.8578 22.0553 69.8578 22.6436V28.0932H67.4163V23.1777C67.4163 22.6771 67.2979 22.303 67.0608 22.0553C66.824 21.8024 66.5021 21.676 66.0953 21.676C65.8274 21.676 65.5854 21.7353 65.369 21.854C65.1528 21.9675 64.98 22.1378 64.8514 22.3649C64.7278 22.5868 64.666 22.8655 64.666 23.2009V28.0932H62.2245Z" fill="#AAAAAA"/>
<path d="M56.48 28.2171C55.9081 28.2171 55.3881 28.0957 54.9192 27.8532C54.4505 27.6055 54.0772 27.2442 53.7989 26.7694C53.5259 26.2895 53.3896 25.6986 53.3896 24.9968V19.764H55.8309V24.6716C55.8309 25.1516 55.9545 25.518 56.2017 25.7709C56.4542 26.0186 56.7605 26.1424 57.1212 26.1424C57.389 26.1424 57.6233 26.0831 57.8241 25.9644C58.0301 25.8457 58.19 25.678 58.3032 25.4612C58.4216 25.2393 58.4809 24.9761 58.4809 24.6716V19.764H60.9222V25.1748C60.9222 25.4741 60.9661 25.6909 61.0537 25.8251C61.1411 25.9592 61.3188 26.0753 61.5867 26.1734L60.7214 28.2171C60.1085 28.0569 59.6605 27.848 59.377 27.5898C59.2344 27.4599 59.1262 27.3103 59.0528 27.141H58.9908C58.7751 27.3583 58.5356 27.5518 58.2724 27.7217C57.7521 28.0519 57.1547 28.2171 56.48 28.2171Z" fill="#AAAAAA"/>
<path fill-rule="evenodd" clip-rule="evenodd" d="M48.4253 28.2171C47.6267 28.2171 46.898 28.0338 46.2387 27.6674C45.5846 27.301 45.0619 26.7952 44.6704 26.1502C44.2842 25.5051 44.0908 24.762 44.0908 23.9208C44.0908 23.0797 44.2842 22.3365 44.6704 21.6914C45.0619 21.0464 45.5846 20.5432 46.2387 20.182C46.898 19.8207 47.6267 19.6401 48.4253 19.6401C49.2389 19.6401 49.9729 19.8207 50.627 20.182C51.2811 20.5432 51.7989 21.0464 52.1799 21.6914C52.5664 22.3365 52.7595 23.0797 52.7595 23.9208C52.7595 24.762 52.5664 25.5051 52.1799 26.1502C51.7989 26.7952 51.2786 27.301 50.6193 27.6674C49.9653 28.0338 49.2337 28.2171 48.4253 28.2171ZM48.4253 26.1269C48.8063 26.1269 49.1488 26.034 49.4527 25.8483C49.7565 25.6625 49.996 25.4045 50.1713 25.0742C50.3463 24.7439 50.4339 24.3595 50.4339 23.9208C50.4339 23.4976 50.349 23.1209 50.179 22.7907C50.0089 22.4604 49.7746 22.2024 49.476 22.0166C49.1771 21.8256 48.8321 21.7301 48.4407 21.7301C48.0544 21.7301 47.7067 21.823 47.3976 22.0088C47.0938 22.1894 46.8543 22.4449 46.679 22.7752C46.504 23.1054 46.4164 23.4873 46.4164 23.9208C46.4164 24.3595 46.504 24.7439 46.679 25.0742C46.8595 25.4045 47.1015 25.6625 47.4053 25.8483C47.7092 26.034 48.0492 26.1269 48.4253 26.1269Z" fill="#AAAAAA"/>
<path d="M37.7437 28.0932V16.6831H44.3801V18.9434H40.2777V21.5675H43.6925V23.8279H40.2777V28.0932H37.7437Z" fill="#AAAAAA"/>
<path d="M32.0531 13.905H28.1372C28.1356 14.105 28.0183 14.2858 27.8385 14.3757L25.3154 15.6362C25.1355 15.7261 25.0207 15.9069 25.0066 16.1069H28.9223C28.9349 15.9069 29.05 15.7261 29.23 15.6362L31.7531 14.3757C31.9327 14.2859 32.0498 14.1051 32.0531 13.905Z" fill="#FF6670"/>
<path d="M0.745483 16.1069H4.66134C4.66305 15.9069 4.78026 15.7261 4.96013 15.6362L7.48321 14.3757C7.66311 14.2858 7.77791 14.105 7.79203 13.905H3.87617C3.86378 14.1051 3.74863 14.2859 3.56876 14.3757L1.04568 15.6362C0.865799 15.7261 0.748929 15.9069 0.745483 16.1069Z" fill="#FF6670"/>
<path d="M10.1423 13.905C10.1264 14.105 10.0119 14.2858 9.83198 14.3757L7.3089 15.6362C7.129 15.7261 7.01143 15.9069 7.0116 16.1069H10.9326C10.9242 15.9074 11.0434 15.7261 11.2234 15.6362L13.7464 14.3757C13.9264 14.2858 14.0394 14.1045 14.0633 13.905H10.1423Z" fill="#FF6670"/>
<path d="M21.8661 13.905C21.8744 14.1045 21.7553 14.2858 21.5753 14.3757L19.0522 15.6362C18.8722 15.7261 18.7593 15.9074 18.7354 16.1069H22.6563C22.6723 15.9069 22.7867 15.7261 22.9666 15.6362L25.4897 14.3757C25.6696 14.2858 25.7872 14.105 25.787 13.905H21.8661Z" fill="#FF6670"/>
</g>
<defs>
<clipPath id="clip0_10_958">
<rect width="114" height="30" fill="white" transform="translate(0.5)"/>
</clipPath>
</defs>
</svg>
