<svg width="192" height="30" viewBox="0 0 192 30" fill="none" xmlns="http://www.w3.org/2000/svg">
<g clip-path="url(#clip0_10_986)">
<path d="M27.1506 1.15421C27.8125 0.466729 28.7113 0.0805054 29.6473 0.0805054C33.8583 0.0805054 37.8267 0.0805075 41.7348 0.0805154C49.595 0.0805318 53.531 9.9521 47.973 15.7255L35.8664 28.3012C35.3106 28.8786 34.3603 28.4697 34.3603 27.6532V16.5769L35.7594 15.1235C36.8709 13.9689 36.0837 11.9945 34.5116 11.9945H16.7147L27.1506 1.15421Z" fill="#3A04FF"/>
<path d="M23.9243 27.4173C23.2625 28.1048 22.3636 28.491 21.4277 28.491C17.2166 28.491 13.2482 28.491 9.34015 28.491C1.47991 28.4909 -2.45611 18.6194 3.1019 12.846L15.2086 0.270264C15.7643 -0.307077 16.7147 0.101819 16.7147 0.9183L16.7148 11.9945L15.3156 13.4479C14.204 14.6026 14.9912 16.5769 16.5633 16.5769L34.3603 16.5769L23.9243 27.4173Z" fill="#3A04FF"/>
<path d="M120.788 9.59998V23.882H124.988V9.59998H120.788Z" fill="#110051"/>
<path d="M121.08 7.22405C121.577 7.71955 122.183 7.96733 122.902 7.96733C123.619 7.96733 124.222 7.71955 124.709 7.22405C125.206 6.72849 125.454 6.12677 125.454 5.41886C125.454 4.69325 125.206 4.0871 124.709 3.60042C124.222 3.10489 123.619 2.85712 122.902 2.85712C122.183 2.85712 121.577 3.10489 121.08 3.60042C120.584 4.0871 120.336 4.69325 120.336 5.41886C120.336 6.12677 120.584 6.72849 121.08 7.22405Z" fill="#110051"/>
<path fill-rule="evenodd" clip-rule="evenodd" d="M127.358 29.4568V9.60001H131.347V11.0202H131.399C131.65 10.7731 131.92 10.5474 132.211 10.3433C133.15 9.68844 134.231 9.36108 135.454 9.36108C136.526 9.36108 137.55 9.6398 138.525 10.1973C139.509 10.7547 140.306 11.5822 140.918 12.6794C141.529 13.7767 141.826 15.1438 141.809 16.7808C141.817 18.0197 141.644 19.0992 141.29 20.0195C140.935 20.9309 140.457 21.6875 139.854 22.2892C139.252 22.8909 138.578 23.3422 137.833 23.6431C137.089 23.9439 136.336 24.0944 135.574 24.0944C134.368 24.0944 133.287 23.7582 132.33 23.0857C132.089 22.9141 131.861 22.7283 131.646 22.5282H131.559V29.4568H127.358ZM134.59 20.5902C135.21 20.5814 135.755 20.4177 136.225 20.0992C136.695 19.7806 137.063 19.3293 137.328 18.7453C137.594 18.1612 137.723 17.4799 137.714 16.7012C137.723 15.9048 137.59 15.2234 137.315 14.6571C137.049 14.0819 136.673 13.6439 136.185 13.343C135.698 13.0334 135.139 12.8829 134.511 12.8917C133.917 12.8829 133.385 13.0289 132.915 13.3298C132.445 13.6307 132.073 14.0687 131.799 14.6438C131.524 15.2102 131.387 15.8959 131.387 16.7012C131.387 17.4799 131.524 18.1612 131.799 18.7453C132.082 19.3293 132.463 19.7806 132.942 20.0992C133.42 20.4177 133.97 20.5814 134.59 20.5902Z" fill="#110051"/>
<path d="M145.853 23.6564C146.633 23.9484 147.448 24.0944 148.299 24.0944C149.274 24.0944 150.165 23.9041 150.971 23.5236C151.786 23.1431 152.437 22.6122 152.925 21.9309C153.422 21.2406 153.669 20.4486 153.669 19.5549C153.669 18.847 153.519 18.2497 153.218 17.7631C152.925 17.2764 152.553 16.8781 152.101 16.5684C151.658 16.2587 151.201 16.0154 150.732 15.8384C150.262 15.6526 149.85 15.511 149.495 15.4136C149.034 15.2809 148.592 15.1438 148.166 15.0022C147.741 14.8606 147.391 14.6925 147.116 14.4978C146.841 14.3031 146.704 14.0465 146.704 13.7279C146.704 13.4094 146.841 13.1439 147.116 12.9316C147.391 12.7192 147.736 12.613 148.153 12.613C148.649 12.613 149.057 12.7457 149.376 13.0112C149.704 13.2766 149.951 13.551 150.12 13.8341L153.35 12.4404C152.943 11.5201 152.251 10.7813 151.277 10.2238C150.311 9.66636 149.22 9.38757 148.006 9.38757C147.032 9.38757 146.163 9.569 145.401 9.93179C144.648 10.2946 144.05 10.799 143.606 11.4449C143.172 12.0821 142.955 12.8209 142.955 13.6616C142.955 14.458 143.141 15.1349 143.513 15.6924C143.886 16.2499 144.369 16.71 144.963 17.0729C145.565 17.4268 146.203 17.7055 146.877 17.9091C147.169 17.9887 147.489 18.0771 147.834 18.1745C148.188 18.2719 148.525 18.3869 148.844 18.5196C149.163 18.6524 149.424 18.8116 149.628 18.9974C149.832 19.1833 149.934 19.4045 149.934 19.6611C149.934 19.8646 149.863 20.0549 149.721 20.2319C149.589 20.4089 149.402 20.5549 149.163 20.6699C148.924 20.7761 148.645 20.8291 148.325 20.8291C147.723 20.8291 147.2 20.6434 146.757 20.2717C146.314 19.9 145.982 19.5063 145.76 19.0904L142.463 20.5371C142.764 21.2539 143.212 21.8821 143.806 22.4219C144.4 22.9529 145.082 23.3644 145.853 23.6564Z" fill="#110051"/>
<path d="M170.745 23.882V9.6H174.746V11.4184H174.819C175.133 10.9839 175.485 10.6167 175.877 10.3167C176.674 9.69729 177.618 9.38757 178.708 9.38757C179.611 9.38757 180.378 9.60879 181.008 10.0513C181.493 10.3811 181.888 10.8235 182.195 11.3786H182.27C182.723 10.8021 183.273 10.3508 183.919 10.0247C184.761 9.6 185.678 9.38757 186.671 9.38757C187.618 9.38757 188.399 9.55572 189.01 9.892C189.621 10.2194 190.1 10.653 190.446 11.1928C190.791 11.7237 191.035 12.3077 191.177 12.9449C191.319 13.5731 191.39 14.1836 191.39 14.7766V23.882H187.162V15.2942C187.162 14.5155 186.998 13.9182 186.671 13.5023C186.352 13.0776 185.882 12.8652 185.261 12.8652C184.854 12.8652 184.49 12.9581 184.171 13.1439C183.861 13.3209 183.613 13.5908 183.427 13.9536C183.25 14.3164 183.161 14.7633 183.161 15.2942V23.882H178.961V15.2942C178.961 14.5155 178.797 13.9182 178.468 13.5023C178.141 13.0776 177.666 12.8652 177.046 12.8652C176.444 12.8652 175.943 13.0731 175.544 13.4891C175.146 13.8961 174.946 14.5066 174.946 15.3208V23.882H170.745Z" fill="#110051"/>
<path d="M160.466 24.0943C159.482 24.0943 158.587 23.8864 157.781 23.4705C156.974 23.0458 156.332 22.4263 155.853 21.6123C155.384 20.7893 155.148 19.7761 155.148 18.5727V9.59998H159.349V18.0152C159.349 18.8381 159.562 19.4664 159.987 19.9C160.421 20.3248 160.949 20.5371 161.569 20.5371C162.03 20.5371 162.434 20.4353 162.779 20.2318C163.133 20.0283 163.408 19.7408 163.603 19.369C163.807 18.9885 163.909 18.5373 163.909 18.0152V9.59998H168.109V18.878C168.109 19.3912 168.185 19.7628 168.335 19.9929C168.486 20.223 168.792 20.4221 169.252 20.5902L167.764 24.0943C166.709 23.82 165.938 23.4617 165.451 23.0193C165.206 22.7963 165.02 22.5397 164.893 22.2494H164.786C164.415 22.622 164.003 22.9538 163.55 23.2449C162.655 23.8112 161.627 24.0943 160.466 24.0943Z" fill="#110051"/>
<path fill-rule="evenodd" clip-rule="evenodd" d="M111.692 24.0944C110.318 24.0944 109.064 23.7803 107.93 23.152C106.804 22.5237 105.905 21.6565 105.231 20.5504C104.566 19.4443 104.234 18.1701 104.234 16.7277C104.234 15.2854 104.566 14.0111 105.231 12.905C105.905 11.7989 106.804 10.9361 107.93 10.3167C109.064 9.69729 110.318 9.38757 111.692 9.38757C113.092 9.38757 114.355 9.69729 115.481 10.3167C116.606 10.9361 117.496 11.7989 118.152 12.905C118.817 14.0111 119.149 15.2854 119.149 16.7277C119.149 18.1701 118.817 19.4443 118.152 20.5504C117.496 21.6565 116.602 22.5237 115.467 23.152C114.342 23.7803 113.083 24.0944 111.692 24.0944ZM111.692 20.5106C112.347 20.5106 112.937 20.3514 113.46 20.0328C113.983 19.7142 114.395 19.2718 114.696 18.7054C114.997 18.1391 115.148 17.4799 115.148 16.7277C115.148 16.0021 115.002 15.3561 114.709 14.7898C114.417 14.2235 114.013 13.7811 113.5 13.4625C112.985 13.1351 112.392 12.9714 111.719 12.9714C111.054 12.9714 110.455 13.1306 109.924 13.4492C109.401 13.7589 108.989 14.1969 108.688 14.7633C108.386 15.3296 108.235 15.9844 108.235 16.7277C108.235 17.4799 108.386 18.1391 108.688 18.7054C108.997 19.2718 109.414 19.7142 109.937 20.0328C110.46 20.3514 111.045 20.5106 111.692 20.5106Z" fill="#110051"/>
<path fill-rule="evenodd" clip-rule="evenodd" d="M91.8016 29.2311C92.7938 29.5231 93.884 29.6691 95.0715 29.6691C96.1795 29.6691 97.1939 29.5275 98.116 29.2444C99.0374 28.9701 99.835 28.5542 100.508 27.9967C101.191 27.4393 101.718 26.749 102.091 25.926C102.463 25.1031 102.649 24.1475 102.649 23.059V9.58669H98.8335V10.9803H98.7541C98.5002 10.7377 98.2255 10.5165 97.9293 10.3167C97.0079 9.6884 95.9313 9.37433 94.6995 9.37433C93.6357 9.37433 92.6121 9.64419 91.6285 10.184C90.6448 10.7149 89.8386 11.5113 89.2091 12.5732C88.5889 13.6262 88.2784 14.949 88.2784 16.5419C88.2784 17.7365 88.4601 18.7762 88.8235 19.6611C89.1869 20.546 89.6698 21.2848 90.2729 21.8778C90.8845 22.4618 91.5619 22.8998 92.3066 23.1918C93.0513 23.475 93.7996 23.6165 94.5528 23.6165C95.7675 23.6165 96.8484 23.2847 97.797 22.621C98.0967 22.4083 98.3771 22.1738 98.6368 21.9175H98.7005V23.298C98.7005 23.9793 98.4794 24.528 98.0359 24.9438C97.5931 25.3686 97.0566 25.6783 96.4278 25.873C95.7983 26.0677 95.1909 26.165 94.6065 26.165C93.924 26.165 93.2502 26.0544 92.5856 25.8332C91.9296 25.6208 91.3538 25.3642 90.858 25.0633L89.4752 28.3551C90.0425 28.656 90.818 28.948 91.8016 29.2311ZM97.2783 19.7275C96.7912 20.046 96.2282 20.2053 95.5901 20.2053C94.9606 20.2053 94.4069 20.046 93.9283 19.7275C93.4498 19.4 93.0735 18.9532 92.7988 18.3868C92.5241 17.8117 92.386 17.1525 92.386 16.4091C92.386 15.6658 92.5241 15.0198 92.7988 14.4713C93.0821 13.9226 93.4719 13.5023 93.9684 13.2103C94.4648 12.9094 95.0271 12.759 95.6566 12.759C96.2854 12.759 96.8398 12.905 97.3184 13.197C97.797 13.489 98.1732 13.9093 98.4479 14.458C98.7226 14.9978 98.86 15.6481 98.86 16.4091C98.86 17.1613 98.7183 17.825 98.4351 18.4001C98.1511 18.9665 97.7655 19.4089 97.2783 19.7275Z" fill="#110051"/>
<path fill-rule="evenodd" clip-rule="evenodd" d="M79.7542 24.0944C78.3807 24.0944 77.1267 23.7803 75.9922 23.152C74.8669 22.5237 73.967 21.6565 73.2938 20.5504C72.6293 19.4443 72.2966 18.1701 72.2966 16.7277C72.2966 15.2854 72.6293 14.0111 73.2938 12.905C73.967 11.7989 74.8669 10.9361 75.9922 10.3167C77.1267 9.69729 78.3807 9.38757 79.7542 9.38757C81.1542 9.38757 82.4175 9.69729 83.5427 10.3167C84.668 10.9361 85.5586 11.7989 86.2146 12.905C86.8792 14.0111 87.2118 15.2854 87.2118 16.7277C87.2118 18.1701 86.8792 19.4443 86.2146 20.5504C85.5586 21.6565 84.6637 22.5237 83.5292 23.152C82.4039 23.7803 81.1456 24.0944 79.7542 24.0944ZM79.7542 20.5106C80.4102 20.5106 80.9989 20.3514 81.5219 20.0328C82.0448 19.7142 82.4568 19.2718 82.7587 18.7054C83.0599 18.1391 83.2101 17.4799 83.2101 16.7277C83.2101 16.0021 83.0642 15.3561 82.7716 14.7898C82.479 14.2235 82.0763 13.7811 81.5619 13.4625C81.0483 13.1351 80.4538 12.9714 79.7807 12.9714C79.1161 12.9714 78.5181 13.1306 77.9859 13.4492C77.4629 13.7589 77.0509 14.1969 76.7497 14.7633C76.4486 15.3296 76.2976 15.9844 76.2976 16.7277C76.2976 17.4799 76.4486 18.1391 76.7497 18.7054C77.0602 19.2718 77.4765 19.7142 77.9994 20.0328C78.5224 20.3514 79.1068 20.5106 79.7542 20.5106Z" fill="#110051"/>
<path d="M60.9406 4.3172V23.882H72.3596V20.0062H65.3007V4.3172H60.9406Z" fill="#110051"/>
</g>
<defs>
<clipPath id="clip0_10_986">
<rect width="191" height="30" fill="white" transform="translate(0.5)"/>
</clipPath>
</defs>
</svg>
