<svg width="188" height="30" viewBox="0 0 188 30" fill="none" xmlns="http://www.w3.org/2000/svg">
<g clip-path="url(#clip0_10_944)">
<path d="M29.9394 24C34.9166 24 38.9515 19.9706 38.9515 15C38.9515 10.0295 34.9166 6 29.9394 6C25.2683 6 21.4272 9.54907 20.9724 14.0944C19.1312 13.2627 17.142 12.7657 15.105 12.6349C16.2407 5.47433 22.4499 0 29.9394 0C38.2348 0 44.9595 6.71573 44.9595 15C44.9595 22.9821 38.7163 29.508 30.8406 29.9734V30H20.942V28.6909C20.942 26.9903 20.2397 25.3366 18.9525 24.1002C17.6617 22.8603 15.8887 22.1455 14.0181 22.1455C12.1475 22.1455 10.3744 22.8603 9.0836 24.1002C7.79648 25.3366 7.09418 26.9903 7.09418 28.6909V30H0.5V28.6588C0.5 25.1528 1.95698 21.8179 4.50541 19.3799C6.97232 17.0198 10.2666 15.6827 13.696 15.6038C13.8032 15.6013 13.9106 15.6 14.0181 15.6C14.1013 15.6 14.1844 15.6007 14.2676 15.6022C17.723 15.6638 21.0464 17.003 23.5307 19.3799C24.907 20.6965 25.9649 22.2746 26.6469 24H29.9394Z" fill="#5233DD"/>
<path d="M16.7795 26.1934C17.5118 26.8294 17.9232 27.692 17.9232 28.5915V30H10.1128V28.5915C10.1128 27.692 10.5243 26.8294 11.2566 26.1934C11.989 25.5573 12.9823 25.2 14.018 25.2C15.0537 25.2 16.0471 25.5573 16.7795 26.1934Z" fill="#5233DD"/>
<path d="M33.3803 13.5272C32.2943 13.5272 31.4141 12.6481 31.4141 11.5636V11.0727C31.4141 10.2594 30.7538 9.59998 29.9393 9.59998C29.1249 9.59998 28.4647 10.2593 28.4647 11.0727V11.5636C28.4647 12.6481 27.5843 13.5272 26.4984 13.5272H26.0068C25.1924 13.5272 24.5321 14.1866 24.5321 15C24.5321 15.8134 25.1924 16.4727 26.0068 16.4727H26.4984C27.5843 16.4727 28.4647 17.3518 28.4647 18.4363V18.9273C28.4647 19.7407 29.1249 20.4 29.9393 20.4C30.7538 20.4 31.4141 19.7407 31.4141 18.9273V18.4363C31.4141 17.3518 32.2943 16.4727 33.3803 16.4727H33.8719C34.6864 16.4727 35.3466 15.8134 35.3466 15C35.3466 14.1866 34.6864 13.5272 33.8719 13.5272H33.3803Z" fill="#5233DD"/>
<path d="M8.91132 2.40003C8.91132 3.72549 9.98728 4.79999 11.3145 4.79999H11.9153C12.9107 4.79999 13.7177 5.60588 13.7177 6.59999C13.7177 7.59412 12.9107 8.4 11.9153 8.4H11.3145C9.98728 8.4 8.91132 9.47453 8.91132 10.7999V11.4C8.91132 12.3941 8.10437 13.2 7.10892 13.2C6.11348 13.2 5.30651 12.3941 5.30651 11.4V10.8C5.30651 9.47452 4.23055 8.4 2.9033 8.4H2.30241C1.30697 8.4 0.5 7.59412 0.5 6.59999C0.5 5.60588 1.30697 4.79999 2.30241 4.79999H2.9033C4.23055 4.79999 5.30651 3.72548 5.30651 2.4V1.8C5.30651 0.80589 6.11348 0 7.10892 0C8.10437 0 8.91132 0.80589 8.91132 1.8V2.40003Z" fill="#5233DD"/>
<path d="M180.199 9.92908C184.711 9.92908 186.889 13.0775 186.889 16.7244V23.572H182.166V17.5377C182.166 15.8848 181.563 14.5205 179.831 14.5205C178.1 14.5205 177.522 15.8848 177.522 17.5377V23.572H172.799V17.5377C172.799 15.8848 172.222 14.5205 170.49 14.5205C168.758 14.5205 168.155 15.8848 168.155 17.5377V23.572H163.431V16.7244C163.431 13.0775 165.609 9.92908 170.122 9.92908C172.589 9.92908 174.373 10.8999 175.186 12.5003C176.052 10.8999 177.942 9.92908 180.199 9.92908Z" fill="#1D0F5F"/>
<path d="M154.944 19.3742C156.466 19.3742 157.122 17.9837 157.122 16.3308V10.4539H161.845V16.908C161.845 20.7648 159.588 23.9656 154.944 23.9656C150.3 23.9656 148.043 20.7648 148.043 16.908V10.4539H152.766V16.3308C152.766 17.9837 153.422 19.3742 154.944 19.3742Z" fill="#1D0F5F"/>
<path d="M141.098 23.9919C138.133 23.9919 136.218 22.9687 135.089 20.9747L138.5 19.0594C138.972 19.899 139.681 20.3188 140.862 20.3188C141.833 20.3188 142.279 19.9777 142.279 19.5579C142.279 17.9575 135.352 19.5842 135.352 14.4943C135.352 12.0281 137.451 10.0341 141.02 10.0341C144.142 10.0341 145.848 11.5558 146.609 13.025L143.198 14.9666C142.908 14.1794 142.016 13.7072 141.124 13.7072C140.442 13.7072 140.075 13.9958 140.075 14.3894C140.075 16.016 147.002 14.5205 147.002 19.453C147.002 22.2078 144.299 23.9919 141.098 23.9919Z" fill="#1D0F5F"/>
<path d="M124.597 29.6065H119.874V16.9868C119.874 12.9726 122.891 10.0603 127.089 10.0603C131.182 10.0603 134.305 13.1825 134.305 16.9868C134.305 21.1846 131.524 23.9657 127.351 23.9657C126.381 23.9657 125.41 23.6771 124.597 23.2311V29.6065ZM127.089 19.5317C128.584 19.5317 129.582 18.3773 129.582 17.013C129.582 15.6225 128.584 14.4943 127.089 14.4943C125.593 14.4943 124.597 15.6225 124.597 17.013C124.597 18.3773 125.593 19.5317 127.089 19.5317Z" fill="#1D0F5F"/>
<path d="M115.142 9.0633C113.594 9.0633 112.308 7.77773 112.308 6.22978C112.308 4.68183 113.594 3.39624 115.142 3.39624C116.69 3.39624 117.976 4.68183 117.976 6.22978C117.976 7.77773 116.69 9.0633 115.142 9.0633ZM112.78 10.4539H117.503V23.5721H112.78V10.4539Z" fill="#1D0F5F"/>
<path d="M103.719 23.9657C99.625 23.9657 96.5023 20.8172 96.5023 16.9868C96.5023 13.1825 99.625 10.0341 103.719 10.0341C107.812 10.0341 110.934 13.1825 110.934 16.9868C110.934 20.8172 107.812 23.9657 103.719 23.9657ZM103.719 19.5317C105.214 19.5317 106.211 18.3773 106.211 17.013C106.211 15.6224 105.214 14.468 103.719 14.468C102.223 14.468 101.225 15.6224 101.225 17.013C101.225 18.3773 102.223 19.5317 103.719 19.5317Z" fill="#1D0F5F"/>
<path d="M87.5842 30C84.3301 30 81.969 28.557 80.7614 25.9859L84.6711 23.8869C85.0909 24.779 85.8787 25.6973 87.5054 25.6973C89.2109 25.6973 90.3389 24.6216 90.4703 22.7325C89.841 23.2835 88.8437 23.7033 87.3477 23.7033C83.7008 23.7033 80.7614 20.896 80.7614 16.9605C80.7614 13.1562 83.884 10.0603 87.9778 10.0603C92.1759 10.0603 95.1934 12.9726 95.1934 16.9868V22.1816C95.1934 26.9041 91.9138 30 87.5842 30ZM87.8989 19.2693C89.316 19.2693 90.3915 18.2986 90.3915 16.8556C90.3915 15.4388 89.316 14.4943 87.8989 14.4943C86.508 14.4943 85.4063 15.4388 85.4063 16.8556C85.4063 18.2986 86.508 19.2693 87.8989 19.2693Z" fill="#1D0F5F"/>
<path d="M72.7494 23.9657C68.6561 23.9657 65.5336 20.8172 65.5336 16.9868C65.5336 13.1825 68.6561 10.0341 72.7494 10.0341C76.8426 10.0341 79.9652 13.1825 79.9652 16.9868C79.9652 20.8172 76.8426 23.9657 72.7494 23.9657ZM72.7494 19.5317C74.2451 19.5317 75.2423 18.3773 75.2423 17.013C75.2423 15.6224 74.2451 14.468 72.7494 14.468C71.2538 14.468 70.2567 15.6224 70.2567 17.013C70.2567 18.3773 71.2538 19.5317 72.7494 19.5317Z" fill="#1D0F5F"/>
<path d="M56.9327 5.86249V19.1119H64.7522V23.5721H56.2767C53.2854 23.5721 52.0784 21.9979 52.0784 19.5054V5.86249H56.9327Z" fill="#1D0F5F"/>
</g>
<defs>
<clipPath id="clip0_10_944">
<rect width="187" height="30" fill="white" transform="translate(0.5)"/>
</clipPath>
</defs>
</svg>
