<svg width="358" height="15" viewBox="0 0 358 15" fill="none" xmlns="http://www.w3.org/2000/svg">
<path fill-rule="evenodd" clip-rule="evenodd" d="M0 11.9413L12.0004 10.8629C24.0007 9.78441 48.0015 7.62753 72.0022 7.62753C96.003 7.62753 120.004 9.78441 144.004 11.9413C168.005 14.0982 192.006 12.7927 216.007 12.7927C240.007 12.7927 266.489 9.2736 288.009 14.3252C311.742 17.447 336.01 8.47893 348.011 12.7927L358 12.7927V-1H348.011C336.01 -1 312.01 -1 288.009 -1C264.008 -1 240.007 -1 216.007 -1C192.006 -1 168.005 -1 144.004 -1C120.004 -1 96.003 -1 72.0022 -1C48.0015 -1 24.0007 -1 12.0004 -1H0L0 11.9413Z" fill="url(#paint0_linear_28_3503)"/>
<defs>
<linearGradient id="paint0_linear_28_3503" x1="358" y1="7" x2="0" y2="7" gradientUnits="userSpaceOnUse">
<stop stop-color="white" stop-opacity="0.1"/>
<stop offset="1" stop-color="white" stop-opacity="0.5"/>
</linearGradient>
</defs>
</svg>
